<?xml version="1.0" encoding="UTF-8"?>
<svg id="Layer_1" xmlns="http://www.w3.org/2000/svg" xmlns:xlink="http://www.w3.org/1999/xlink" version="1.1" viewBox="0 0 1554.1 290.9">
  <!-- Generator: Adobe Illustrator 30.2.1, SVG Export Plug-In . SVG Version: 2.1.1 Build 1)  -->
  <defs>
    <style>
      .st0 {
        fill: url(#linear-gradient1);
      }

      .st1 {
        fill: url(#linear-gradient);
      }

      .st2 {
        fill: #694de2;
      }

      .st3 {
        fill: #ededed;
      }

      .st4 {
        fill: #161616;
      }
    </style>
    <linearGradient id="linear-gradient" x1="-1032.2" y1="-1465" x2="-1032.2" y2="-2547.6" gradientUnits="userSpaceOnUse">
      <stop offset="0" stop-color="#694de2"/>
      <stop offset="1" stop-color="#161616"/>
    </linearGradient>
    <linearGradient id="linear-gradient1" x1="-2172.2" y1="-1465" x2="-2172.2" y2="-2547.6" xlink:href="#linear-gradient"/>
  </defs>
  <rect class="st4" x="-434.7" y="-3723.1" width="1085" height="1085"/>
  <rect class="st2" x="1845.3" y="-3723.1" width="1085" height="1085"/>
  <g>
    <g>
      <path class="st3" d="M2468.8-3312.8c0,7.6-6.2,13.8-13.8,13.8h-179.1c-3.7,0-7.2,1.5-9.8,4l-17.7,17.7c-2.6,2.6-4,6.1-4,9.8v171.1c0,3.7,1.5,7.2,4,9.8l21.1,21.1c2.6,2.6,6.1,4,9.8,4h175.6c7.6,0,13.8,6.2,13.8,13.8v35.2c0,7.6-6.2,13.8-13.8,13.8h-196.7c-7.6,0-13.8-6.2-13.8-13.8v-20.3c0-3.7-1.5-7.2-4-9.8l-15-15c-2.6-2.6-6.1-4-9.8-4h-19.5c-7.6,0-13.8-6.2-13.8-13.8v-209.9c0-7.6,6.2-13.8,13.8-13.8h16c3.7,0,7.2-1.5,9.8-4l18.5-18.5c2.6-2.6,4-6.1,4-9.8v-17.6c0-7.6,6.2-13.8,13.8-13.8h196.7c7.6,0,13.8,6.2,13.8,13.8v36Z"/>
      <rect class="st3" x="2315.8" y="-3212.8" width="153.1" height="64.4" rx="-1542" ry="-1542" transform="translate(2949.7 760) rotate(-45)"/>
    </g>
    <rect class="st3" x="2529.5" y="-3298.8" width="63.6" height="237.4" rx="-1412.1" ry="-1412.1"/>
  </g>
  <rect class="st2" x="705.3" y="-3723.1" width="1085" height="1085"/>
  <g>
    <g>
      <path class="st4" d="M1328.8-3312.8c0,7.6-6.2,13.8-13.8,13.8h-179.1c-3.7,0-7.2,1.5-9.8,4l-17.7,17.7c-2.6,2.6-4,6.1-4,9.8v171.1c0,3.7,1.5,7.2,4,9.8l21.1,21.1c2.6,2.6,6.1,4,9.8,4h175.6c7.6,0,13.8,6.2,13.8,13.8v35.2c0,7.6-6.2,13.8-13.8,13.8h-196.7c-7.6,0-13.8-6.2-13.8-13.8v-20.3c0-3.7-1.5-7.2-4-9.8l-15-15c-2.6-2.6-6.1-4-9.8-4h-19.5c-7.6,0-13.8-6.2-13.8-13.8v-209.9c0-7.6,6.2-13.8,13.8-13.8h16c3.7,0,7.2-1.5,9.8-4l18.5-18.5c2.6-2.6,4-6.1,4-9.8v-17.6c0-7.6,6.2-13.8,13.8-13.8h196.7c7.6,0,13.8,6.2,13.8,13.8v36Z"/>
      <rect class="st4" x="1175.8" y="-3212.8" width="153.1" height="64.4" rx="-1542" ry="-1542" transform="translate(2615.8 -46.1) rotate(-45)"/>
    </g>
    <rect class="st4" x="1389.5" y="-3298.8" width="63.6" height="237.4" rx="-1412.1" ry="-1412.1"/>
  </g>
  <rect class="st1" x="-1574.7" y="-2583.1" width="1085" height="1085"/>
  <g>
    <path class="st3" d="M-705.6-2087.5v18.9c11.4-6.7,25.3-7.6,36.8-.9,12,6.9,11.4,28.3,9.2,39.8-1.5,7.9-6.2,14-13.7,16.7-9.4,3.4-22.7,3.4-31.7-2.8l-1.6,4.6h-11.9v-86.2h13v9.8ZM-704.5-2051.6c-1.4,6.1-1.1,12.3-.1,18.4,1.5,3.6,3.5,6.9,7.3,8,8,2.4,21.9,2.4,24.4-8,2-8.6,2.8-24.8-9.2-27.3-7.7-1.6-20.1-1.1-22.4,8.8Z"/>
    <path class="st3" d="M-902.3-2011.1v-36.2c0-10.6-9.3-13.4-16.2-13.4s-16.1,2.9-16.2,12.6v37h-13v-86.2h13v28.6c4.5-3.6,11.6-5.3,18.5-5.3,5.3,0,10.4,1,14.3,2.6,7.3,3.1,12.6,10,12.6,18.3v42s-13,0-13,0Z"/>
    <polygon class="st3" points="-1179.2 -2060.5 -1179.2 -2011.1 -1192.1 -2011.1 -1192.1 -2073.7 -1152 -2073.7 -1152 -2060.5 -1179.2 -2060.5"/>
    <path class="st3" d="M-1117.4-2074h-8.6c-14,0-25.3,11.3-25.3,25.3v12.7c0,14,11.3,25.3,25.3,25.3h8.6c14,0,25.3-11.3,25.3-25.3v-12.7c0-14-11.3-25.3-25.3-25.3ZM-1104.7-2038.7c0,8-6.5,14.5-14.5,14.5h-4.9c-8,0-14.5-6.5-14.5-14.5v-7.2c0-8,6.5-14.5,14.5-14.5h4.9c8,0,14.5,6.5,14.5,14.5v7.2Z"/>
    <polygon class="st3" points="-1013.2 -2073.7 -1023.8 -2025.7 -1032.4 -2073.7 -1044.4 -2073.7 -1056.4 -2073.7 -1064.9 -2025.7 -1075.6 -2073.7 -1089.7 -2073.7 -1075.8 -2011.1 -1053.1 -2011.1 -1044.4 -2060 -1035.7 -2011.1 -1012.9 -2011.1 -999.1 -2073.7 -1013.2 -2073.7"/>
    <path class="st3" d="M-956.2-2024.2v13.2h-12.6c-9.1,0-16.4-7.3-16.4-16.4v-33h-9v-13.2h9v-17.1h13v17.1h16v13.2h-16v28.3c0,4.4,3.6,8,8,8h8Z"/>
    <path class="st3" d="M-810.7-2011.1v-36.2c0-10.6-9.3-13.4-16.2-13.4s-16.1,2.9-16.2,12.6v37h-13v-86.2h13v28.6c4.5-3.6,11.6-5.3,18.5-5.3,5.3,0,10.4,1,14.3,2.6,7.3,3.1,12.6,10,12.6,18.3v42s-13,0-13,0Z"/>
    <path class="st3" d="M-774.7-2073.6v36.2c0,10.6,9.3,13.4,16.2,13.4s16.1-2.9,16.2-12.6v-37h13v62.6h-11.3l-1.6-4.9c-4.5,3.6-11.6,5.3-18.5,5.3-5.3,0-10.4-1-14.3-2.6-7.3-3.1-12.6-10-12.6-18.3v-42s13,0,13,0Z"/>
    <path class="st3" d="M-1215.4-2073.6l-1.6,4.6c-9-6.1-22.4-6.1-31.7-2.8-7.5,2.7-12.2,8.8-13.7,16.7-2.2,11.5-2.8,32.9,9.2,39.8,11.5,6.7,25.5,5.8,36.8-.9v18.9h0c0,.1-42,.1-42,.1v13.2h54.9v-89.7h-11.9ZM-1217.4-2033.1c-2.3,10-14.7,10.5-22.4,8.8-11.9-2.5-11.2-18.7-9.2-27.3,2.5-10.4,16.4-10.4,24.4-8,3.8,1.1,5.8,4.4,7.3,8,1,6.1,1.3,12.4-.1,18.4Z"/>
    <g>
      <g>
        <path class="st2" d="M-1330.3-2077.4c0,2-1.6,3.7-3.7,3.7h-47.5c-1,0-1.9.4-2.6,1.1l-4.7,4.7c-.7.7-1.1,1.6-1.1,2.6v45.4c0,1,.4,1.9,1.1,2.6l5.6,5.6c.7.7,1.6,1.1,2.6,1.1h46.5c2,0,3.7,1.6,3.7,3.7v9.3c0,2-1.6,3.7-3.7,3.7h-52.1c-2,0-3.7-1.6-3.7-3.7v-5.4c0-1-.4-1.9-1.1-2.6l-4-4c-.7-.7-1.6-1.1-2.6-1.1h-5.2c-2,0-3.7-1.6-3.7-3.7v-55.6c0-2,1.6-3.7,3.7-3.7h4.2c1,0,1.9-.4,2.6-1.1l4.9-4.9c.7-.7,1.1-1.6,1.1-2.6v-4.7c0-2,1.6-3.7,3.7-3.7h52.1c2,0,3.7,1.6,3.7,3.7v9.5Z"/>
        <rect class="st2" x="-1370.8" y="-2050.9" width="40.6" height="17.1" rx="-1008.4" ry="-1008.4" transform="translate(1048.6 -1553.2) rotate(-45)"/>
      </g>
      <rect class="st2" x="-1314.2" y="-2073.7" width="16.9" height="62.9" rx="-973.9" ry="-973.9"/>
    </g>
  </g>
  <rect class="st0" x="-2714.7" y="-2583.1" width="1085" height="1085"/>
  <g>
    <path class="st3" d="M-1845.6-2087.5v18.9c11.4-6.7,25.3-7.6,36.8-.9,12,6.9,11.4,28.3,9.2,39.8-1.5,7.9-6.2,14-13.7,16.7-9.4,3.4-22.7,3.4-31.7-2.8l-1.6,4.6h-11.9v-86.2h13v9.8ZM-1844.5-2051.6c-1.4,6.1-1.1,12.3-.1,18.4,1.5,3.6,3.5,6.9,7.3,8,8,2.4,21.9,2.4,24.4-8,2-8.6,2.8-24.8-9.2-27.3-7.7-1.6-20.1-1.1-22.4,8.8Z"/>
    <path class="st3" d="M-2042.3-2011.1v-36.2c0-10.6-9.3-13.4-16.2-13.4s-16.1,2.9-16.2,12.6v37h-13v-86.2h13v28.6c4.5-3.6,11.6-5.3,18.5-5.3,5.3,0,10.4,1,14.3,2.6,7.3,3.1,12.6,10,12.6,18.3v42s-13,0-13,0Z"/>
    <polygon class="st3" points="-2319.2 -2060.5 -2319.2 -2011.1 -2332.1 -2011.1 -2332.1 -2073.7 -2292 -2073.7 -2292 -2060.5 -2319.2 -2060.5"/>
    <path class="st3" d="M-2257.4-2074h-8.6c-14,0-25.3,11.3-25.3,25.3v12.7c0,14,11.3,25.3,25.3,25.3h8.6c14,0,25.3-11.3,25.3-25.3v-12.7c0-14-11.3-25.3-25.3-25.3ZM-2244.7-2038.7c0,8-6.5,14.5-14.5,14.5h-4.9c-8,0-14.5-6.5-14.5-14.5v-7.2c0-8,6.5-14.5,14.5-14.5h4.9c8,0,14.5,6.5,14.5,14.5v7.2Z"/>
    <polygon class="st3" points="-2153.2 -2073.7 -2163.8 -2025.7 -2172.4 -2073.7 -2184.4 -2073.7 -2196.4 -2073.7 -2204.9 -2025.7 -2215.6 -2073.7 -2229.7 -2073.7 -2215.8 -2011.1 -2193.1 -2011.1 -2184.4 -2060 -2175.7 -2011.1 -2152.9 -2011.1 -2139.1 -2073.7 -2153.2 -2073.7"/>
    <path class="st3" d="M-2096.2-2024.2v13.2h-12.6c-9.1,0-16.4-7.3-16.4-16.4v-33h-9v-13.2h9v-17.1h13v17.1h16v13.2h-16v28.3c0,4.4,3.6,8,8,8h8Z"/>
    <path class="st3" d="M-1950.7-2011.1v-36.2c0-10.6-9.3-13.4-16.2-13.4s-16.1,2.9-16.2,12.6v37h-13v-86.2h13v28.6c4.5-3.6,11.6-5.3,18.5-5.3,5.3,0,10.4,1,14.3,2.6,7.3,3.1,12.6,10,12.6,18.3v42s-13,0-13,0Z"/>
    <path class="st3" d="M-1914.7-2073.6v36.2c0,10.6,9.3,13.4,16.2,13.4s16.1-2.9,16.2-12.6v-37h13v62.6h-11.3l-1.6-4.9c-4.5,3.6-11.6,5.3-18.5,5.3-5.3,0-10.4-1-14.3-2.6-7.3-3.1-12.6-10-12.6-18.3v-42s13,0,13,0Z"/>
    <path class="st3" d="M-2355.4-2073.6l-1.6,4.6c-9-6.1-22.4-6.1-31.7-2.8-7.5,2.7-12.2,8.8-13.7,16.7-2.2,11.5-2.8,32.9,9.2,39.8,11.5,6.7,25.5,5.8,36.8-.9v18.9h0c0,.1-42,.1-42,.1v13.2h54.9v-89.7h-11.9ZM-2357.4-2033.1c-2.3,10-14.7,10.5-22.4,8.8-11.9-2.5-11.2-18.7-9.2-27.3,2.5-10.4,16.4-10.4,24.4-8,3.8,1.1,5.8,4.4,7.3,8,1,6.1,1.3,12.4-.1,18.4Z"/>
    <g>
      <g>
        <path class="st3" d="M-2470.3-2077.4c0,2-1.6,3.7-3.7,3.7h-47.5c-1,0-1.9.4-2.6,1.1l-4.7,4.7c-.7.7-1.1,1.6-1.1,2.6v45.4c0,1,.4,1.9,1.1,2.6l5.6,5.6c.7.7,1.6,1.1,2.6,1.1h46.5c2,0,3.7,1.6,3.7,3.7v9.3c0,2-1.6,3.7-3.7,3.7h-52.1c-2,0-3.7-1.6-3.7-3.7v-5.4c0-1-.4-1.9-1.1-2.6l-4-4c-.7-.7-1.6-1.1-2.6-1.1h-5.2c-2,0-3.7-1.6-3.7-3.7v-55.6c0-2,1.6-3.7,3.7-3.7h4.2c1,0,1.9-.4,2.6-1.1l4.9-4.9c.7-.7,1.1-1.6,1.1-2.6v-4.7c0-2,1.6-3.7,3.7-3.7h52.1c2,0,3.7,1.6,3.7,3.7v9.5Z"/>
        <rect class="st3" x="-2510.8" y="-2050.9" width="40.6" height="17.1" rx="-1214.9" ry="-1214.9" transform="translate(714.7 -2359.3) rotate(-45)"/>
      </g>
      <rect class="st3" x="-2454.2" y="-2073.7" width="16.9" height="62.9" rx="-1210.2" ry="-1210.2"/>
    </g>
  </g>
  <g>
    <path class="st4" d="M1432.8-2478.4v48.5c29.1-17.3,65-19.5,94.6-2.3,30.7,17.8,29.2,72.8,23.6,102.2-3.9,20.3-15.9,36-35.1,43-24.1,8.6-58.3,8.6-81.5-7.1l-4.2,11.9h-30.7v-221.3h33.3v25.1ZM1435.5-2386.4c-3.7,15.6-2.9,31.6-.4,47.4,3.9,9.3,9,17.7,18.8,20.7,20.5,6.1,56.2,6.1,62.5-20.6,5.3-22.1,7.2-63.6-23.5-70.1-19.8-4.2-51.5-2.9-57.5,22.7Z"/>
    <path class="st4" d="M927.7-2282.2v-92.8c0-27.3-23.9-34.4-41.7-34.4s-41.4,7.5-41.7,32.4v94.9h-33.3v-221.3h33.3v73.3c11.6-9.2,29.8-13.6,47.5-13.6,13.5,0,26.8,2.6,36.7,6.7,18.7,7.9,32.4,25.6,32.4,46.9v107.9s-33.3,0-33.3,0Z"/>
    <polygon class="st4" points="216.9 -2409.1 216.9 -2282.2 183.7 -2282.2 183.7 -2442.9 286.7 -2442.9 286.7 -2409.1 216.9 -2409.1"/>
    <path class="st4" d="M375.5-2443.8h-22c-35.9,0-65,29.1-65,65v32.5c0,35.9,29.1,65,65,65h22c35.9,0,65-29.1,65-65v-32.5c0-35.9-29.1-65-65-65ZM408.1-2353.3c0,20.6-16.7,37.3-37.3,37.3h-12.7c-20.6,0-37.3-16.7-37.3-37.3v-18.6c0-20.6,16.7-37.3,37.3-37.3h12.7c20.6,0,37.3,16.7,37.3,37.3v18.6Z"/>
    <polygon class="st4" points="643.1 -2442.9 615.8 -2319.7 593.8 -2442.9 563 -2442.9 532.2 -2442.9 510.2 -2319.7 482.9 -2442.9 446.7 -2442.9 482.2 -2282.2 540.7 -2282.2 563 -2407.9 585.3 -2282.2 643.8 -2282.2 679.3 -2442.9 643.1 -2442.9"/>
    <path class="st4" d="M789.5-2316.1v33.8h-32.3c-23.3,0-42.1-18.8-42.1-42.1v-84.8h-23.1v-33.8h23.1v-43.8h33.3v43.8h41.1v33.8h-41.1v72.6c0,11.3,9.2,20.5,20.5,20.5h20.6Z"/>
    <path class="st4" d="M1162.9-2282.2v-92.8c0-27.3-23.9-34.4-41.7-34.4s-41.4,7.5-41.7,32.4v94.9h-33.3v-221.3h33.3v73.3c11.6-9.2,29.8-13.6,47.5-13.6,13.5,0,26.8,2.6,36.7,6.7,18.7,7.9,32.4,25.6,32.4,46.9v107.9s-33.3,0-33.3,0Z"/>
    <path class="st4" d="M1255.3-2442.8v92.8c0,27.3,23.9,34.4,41.7,34.4s41.4-7.5,41.7-32.4v-94.9h33.3v160.6h-29.1l-4.2-12.6c-11.6,9.2-29.8,13.6-47.5,13.6-13.5,0-26.8-2.6-36.7-6.7-18.7-7.9-32.4-25.6-32.4-46.9v-107.9s33.3,0,33.3,0Z"/>
    <path class="st4" d="M124-2442.9l-4.2,11.9c-23.2-15.7-57.4-15.7-81.5-7.1-19.3,6.9-31.3,22.7-35.1,43-5.6,29.5-7.1,84.4,23.6,102.2,29.6,17.2,65.4,14.9,94.6-2.3v48.8H13.6v33.8h141v-230.2h-30.7ZM118.7-2338.7c-6,25.6-37.7,26.9-57.5,22.7-30.7-6.4-28.7-47.9-23.5-70.1,6.3-26.8,42.1-26.8,62.5-20.6,9.8,2.9,15,11.4,18.8,20.7,2.5,15.7,3.3,31.7-.4,47.4Z"/>
    <g>
      <g>
        <path class="st4" d="M-171-2452.5c0,5.2-4.2,9.4-9.4,9.4h-121.8c-2.5,0-4.9,1-6.6,2.7l-12,12c-1.8,1.8-2.7,4.1-2.7,6.6v116.4c0,2.5,1,4.9,2.7,6.6l14.4,14.4c1.8,1.8,4.1,2.7,6.6,2.7h119.5c5.2,0,9.4,4.2,9.4,9.4v24c0,5.2-4.2,9.4-9.4,9.4h-133.9c-5.2,0-9.4-4.2-9.4-9.4v-13.8c0-2.5-1-4.9-2.7-6.6l-10.2-10.2c-1.8-1.8-4.1-2.7-6.6-2.7h-13.3c-5.2,0-9.4-4.2-9.4-9.4v-142.8c0-5.2,4.2-9.4,9.4-9.4h10.9c2.5,0,4.9-1,6.6-2.7l12.6-12.6c1.8-1.8,2.7-4.1,2.7-6.6v-11.9c0-5.2,4.2-9.4,9.4-9.4h133.9c5.2,0,9.4,4.2,9.4,9.4v24.5Z"/>
        <rect class="st4" x="-275.1" y="-2384.5" width="104.1" height="43.8" rx="-1148.5" ry="-1148.5" transform="translate(1605.3 -849.7) rotate(-45)"/>
      </g>
      <rect class="st4" x="-129.7" y="-2443" width="43.3" height="161.5" rx="-1060" ry="-1060"/>
    </g>
  </g>
  <g>
    <path class="st3" d="M1432.8-2162.8v48.5c29.1-17.3,65-19.5,94.6-2.3,30.7,17.8,29.2,72.8,23.6,102.2-3.9,20.3-15.9,36-35.1,43-24.1,8.6-58.3,8.6-81.5-7.1l-4.2,11.9h-30.7v-221.3h33.3v25.1ZM1435.5-2070.8c-3.7,15.6-2.9,31.6-.4,47.4,3.9,9.3,9,17.7,18.8,20.7,20.5,6.1,56.2,6.1,62.5-20.6,5.3-22.1,7.2-63.6-23.5-70.1-19.8-4.2-51.5-2.9-57.5,22.7Z"/>
    <path class="st3" d="M927.7-1966.7v-92.8c0-27.3-23.9-34.4-41.7-34.4s-41.4,7.5-41.7,32.4v94.9h-33.3v-221.3h33.3v73.3c11.6-9.2,29.8-13.6,47.5-13.6,13.5,0,26.8,2.6,36.7,6.7,18.7,7.9,32.4,25.6,32.4,46.9v107.9s-33.3,0-33.3,0Z"/>
    <polygon class="st3" points="216.9 -2093.6 216.9 -1966.7 183.7 -1966.7 183.7 -2127.4 286.7 -2127.4 286.7 -2093.6 216.9 -2093.6"/>
    <path class="st3" d="M375.5-2128.3h-22c-35.9,0-65,29.1-65,65v32.5c0,35.9,29.1,65,65,65h22c35.9,0,65-29.1,65-65v-32.5c0-35.9-29.1-65-65-65ZM408.1-2037.7c0,20.6-16.7,37.3-37.3,37.3h-12.7c-20.6,0-37.3-16.7-37.3-37.3v-18.6c0-20.6,16.7-37.3,37.3-37.3h12.7c20.6,0,37.3,16.7,37.3,37.3v18.6Z"/>
    <polygon class="st3" points="643.1 -2127.4 615.8 -2004.2 593.8 -2127.4 563 -2127.4 532.2 -2127.4 510.2 -2004.2 482.9 -2127.4 446.7 -2127.4 482.2 -1966.7 540.7 -1966.7 563 -2092.4 585.3 -1966.7 643.8 -1966.7 679.3 -2127.4 643.1 -2127.4"/>
    <path class="st3" d="M789.5-2000.5v33.8h-32.3c-23.3,0-42.1-18.8-42.1-42.1v-84.8h-23.1v-33.8h23.1v-43.8h33.3v43.8h41.1v33.8h-41.1v72.6c0,11.3,9.2,20.5,20.5,20.5h20.6Z"/>
    <path class="st3" d="M1162.9-1966.7v-92.8c0-27.3-23.9-34.4-41.7-34.4s-41.4,7.5-41.7,32.4v94.9h-33.3v-221.3h33.3v73.3c11.6-9.2,29.8-13.6,47.5-13.6,13.5,0,26.8,2.6,36.7,6.7,18.7,7.9,32.4,25.6,32.4,46.9v107.9s-33.3,0-33.3,0Z"/>
    <path class="st3" d="M1255.3-2127.3v92.8c0,27.3,23.9,34.4,41.7,34.4s41.4-7.5,41.7-32.4v-94.9h33.3v160.6h-29.1l-4.2-12.6c-11.6,9.2-29.8,13.6-47.5,13.6-13.5,0-26.8-2.6-36.7-6.7-18.7-7.9-32.4-25.6-32.4-46.9v-107.9s33.3,0,33.3,0Z"/>
    <path class="st3" d="M124-2127.3l-4.2,11.9c-23.2-15.7-57.4-15.7-81.5-7.1-19.3,6.9-31.3,22.7-35.1,43-5.6,29.5-7.1,84.4,23.6,102.2,29.6,17.2,65.4,14.9,94.6-2.3v48.8H13.6v33.8h141v-230.2h-30.7ZM118.7-2023.2c-6,25.6-37.7,26.9-57.5,22.7-30.7-6.4-28.7-47.9-23.5-70.1,6.3-26.8,42.1-26.8,62.5-20.6,9.8,2.9,15,11.4,18.8,20.7,2.5,15.7,3.3,31.7-.4,47.4Z"/>
    <g>
      <g>
        <path class="st3" d="M-171-2136.9c0,5.2-4.2,9.4-9.4,9.4h-121.8c-2.5,0-4.9,1-6.6,2.7l-12,12c-1.8,1.8-2.7,4.1-2.7,6.6v116.4c0,2.5,1,4.9,2.7,6.6l14.4,14.4c1.8,1.8,4.1,2.7,6.6,2.7h119.5c5.2,0,9.4,4.2,9.4,9.4v24c0,5.2-4.2,9.4-9.4,9.4h-133.9c-5.2,0-9.4-4.2-9.4-9.4v-13.8c0-2.5-1-4.9-2.7-6.6l-10.2-10.2c-1.8-1.8-4.1-2.7-6.6-2.7h-13.3c-5.2,0-9.4-4.2-9.4-9.4v-142.8c0-5.2,4.2-9.4,9.4-9.4h10.9c2.5,0,4.9-1,6.6-2.7l12.6-12.6c1.8-1.8,2.7-4.1,2.7-6.6v-11.9c0-5.2,4.2-9.4,9.4-9.4h133.9c5.2,0,9.4,4.2,9.4,9.4v24.5Z"/>
        <rect class="st3" x="-275.1" y="-2068.9" width="104.1" height="43.8" rx="-990.7" ry="-990.7" transform="translate(1382.1 -757.3) rotate(-45)"/>
      </g>
      <rect class="st3" x="-129.7" y="-2127.5" width="43.3" height="161.5" rx="-902.2" ry="-902.2"/>
    </g>
  </g>
  <g>
    <path class="st2" d="M1432.8-1847.3v48.5c29.1-17.3,65-19.5,94.6-2.3,30.7,17.8,29.2,72.8,23.6,102.2-3.9,20.3-15.9,36-35.1,43-24.1,8.6-58.3,8.6-81.5-7.1l-4.2,11.9h-30.7v-221.3h33.3v25.1ZM1435.5-1755.3c-3.7,15.6-2.9,31.6-.4,47.4,3.9,9.3,9,17.7,18.8,20.7,20.5,6.1,56.2,6.1,62.5-20.6,5.3-22.1,7.2-63.6-23.5-70.1-19.8-4.2-51.5-2.9-57.5,22.7Z"/>
    <path class="st2" d="M927.7-1651.1v-92.8c0-27.3-23.9-34.4-41.7-34.4s-41.4,7.5-41.7,32.4v94.9h-33.3v-221.3h33.3v73.3c11.6-9.2,29.8-13.6,47.5-13.6,13.5,0,26.8,2.6,36.7,6.7,18.7,7.9,32.4,25.6,32.4,46.9v107.9s-33.3,0-33.3,0Z"/>
    <polygon class="st2" points="216.9 -1778 216.9 -1651.1 183.7 -1651.1 183.7 -1811.8 286.7 -1811.8 286.7 -1778 216.9 -1778"/>
    <path class="st2" d="M375.5-1812.7h-22c-35.9,0-65,29.1-65,65v32.5c0,35.9,29.1,65,65,65h22c35.9,0,65-29.1,65-65v-32.5c0-35.9-29.1-65-65-65ZM408.1-1722.2c0,20.6-16.7,37.3-37.3,37.3h-12.7c-20.6,0-37.3-16.7-37.3-37.3v-18.6c0-20.6,16.7-37.3,37.3-37.3h12.7c20.6,0,37.3,16.7,37.3,37.3v18.6Z"/>
    <polygon class="st2" points="643.1 -1811.8 615.8 -1688.6 593.8 -1811.8 563 -1811.8 532.2 -1811.8 510.2 -1688.6 482.9 -1811.8 446.7 -1811.8 482.2 -1651.1 540.7 -1651.1 563 -1776.8 585.3 -1651.1 643.8 -1651.1 679.3 -1811.8 643.1 -1811.8"/>
    <path class="st2" d="M789.5-1684.9v33.8h-32.3c-23.3,0-42.1-18.8-42.1-42.1v-84.8h-23.1v-33.8h23.1v-43.8h33.3v43.8h41.1v33.8h-41.1v72.6c0,11.3,9.2,20.5,20.5,20.5h20.6Z"/>
    <path class="st2" d="M1162.9-1651.1v-92.8c0-27.3-23.9-34.4-41.7-34.4s-41.4,7.5-41.7,32.4v94.9h-33.3v-221.3h33.3v73.3c11.6-9.2,29.8-13.6,47.5-13.6,13.5,0,26.8,2.6,36.7,6.7,18.7,7.9,32.4,25.6,32.4,46.9v107.9s-33.3,0-33.3,0Z"/>
    <path class="st2" d="M1255.3-1811.7v92.8c0,27.3,23.9,34.4,41.7,34.4s41.4-7.5,41.7-32.4v-94.9h33.3v160.6h-29.1l-4.2-12.6c-11.6,9.2-29.8,13.6-47.5,13.6-13.5,0-26.8-2.6-36.7-6.7-18.7-7.9-32.4-25.6-32.4-46.9v-107.9s33.3,0,33.3,0Z"/>
    <path class="st2" d="M124-1811.8l-4.2,11.9c-23.2-15.7-57.4-15.7-81.5-7.1-19.3,6.9-31.3,22.7-35.1,43-5.6,29.5-7.1,84.4,23.6,102.2,29.6,17.2,65.4,14.9,94.6-2.3v48.8H13.6v33.8h141v-230.2h-30.7ZM118.7-1707.6c-6,25.6-37.7,26.9-57.5,22.7-30.7-6.4-28.7-47.9-23.5-70.1,6.3-26.8,42.1-26.8,62.5-20.6,9.8,2.9,15,11.4,18.8,20.7,2.5,15.7,3.3,31.7-.4,47.4Z"/>
    <g>
      <g>
        <path class="st2" d="M-171-1821.4c0,5.2-4.2,9.4-9.4,9.4h-121.8c-2.5,0-4.9,1-6.6,2.7l-12,12c-1.8,1.8-2.7,4.1-2.7,6.6v116.4c0,2.5,1,4.9,2.7,6.6l14.4,14.4c1.8,1.8,4.1,2.7,6.6,2.7h119.5c5.2,0,9.4,4.2,9.4,9.4v24c0,5.2-4.2,9.4-9.4,9.4h-133.9c-5.2,0-9.4-4.2-9.4-9.4v-13.8c0-2.5-1-4.9-2.7-6.6l-10.2-10.2c-1.8-1.8-4.1-2.7-6.6-2.7h-13.3c-5.2,0-9.4-4.2-9.4-9.4v-142.8c0-5.2,4.2-9.4,9.4-9.4h10.9c2.5,0,4.9-1,6.6-2.7l12.6-12.6c1.8-1.8,2.7-4.1,2.7-6.6v-11.9c0-5.2,4.2-9.4,9.4-9.4h133.9c5.2,0,9.4,4.2,9.4,9.4v24.5Z"/>
        <rect class="st2" x="-275.1" y="-1753.4" width="104.1" height="43.8" rx="-832.9" ry="-832.9" transform="translate(1159 -664.9) rotate(-45)"/>
      </g>
      <rect class="st2" x="-129.7" y="-1811.9" width="43.3" height="161.5" rx="-744.5" ry="-744.5"/>
    </g>
  </g>
  <g>
    <path class="st4" d="M1432.8-1531.7v48.5c29.1-17.3,65-19.5,94.6-2.3,30.7,17.8,29.2,72.8,23.6,102.2-3.9,20.3-15.9,36-35.1,43-24.1,8.6-58.3,8.6-81.5-7.1l-4.2,11.9h-30.7v-221.3h33.3v25.1ZM1435.5-1439.7c-3.7,15.6-2.9,31.6-.4,47.4,3.9,9.3,9,17.7,18.8,20.7,20.5,6.1,56.2,6.1,62.5-20.6,5.3-22.1,7.2-63.6-23.5-70.1-19.8-4.2-51.5-2.9-57.5,22.7Z"/>
    <path class="st4" d="M927.7-1335.6v-92.8c0-27.3-23.9-34.4-41.7-34.4s-41.4,7.5-41.7,32.4v94.9h-33.3v-221.3h33.3v73.3c11.6-9.2,29.8-13.6,47.5-13.6,13.5,0,26.8,2.6,36.7,6.7,18.7,7.9,32.4,25.6,32.4,46.9v107.9s-33.3,0-33.3,0Z"/>
    <polygon class="st4" points="216.9 -1462.4 216.9 -1335.6 183.7 -1335.6 183.7 -1496.2 286.7 -1496.2 286.7 -1462.4 216.9 -1462.4"/>
    <path class="st4" d="M375.5-1497.2h-22c-35.9,0-65,29.1-65,65v32.5c0,35.9,29.1,65,65,65h22c35.9,0,65-29.1,65-65v-32.5c0-35.9-29.1-65-65-65ZM408.1-1406.6c0,20.6-16.7,37.3-37.3,37.3h-12.7c-20.6,0-37.3-16.7-37.3-37.3v-18.6c0-20.6,16.7-37.3,37.3-37.3h12.7c20.6,0,37.3,16.7,37.3,37.3v18.6Z"/>
    <polygon class="st4" points="643.1 -1496.2 615.8 -1373.1 593.8 -1496.2 563 -1496.2 532.2 -1496.2 510.2 -1373.1 482.9 -1496.2 446.7 -1496.2 482.2 -1335.6 540.7 -1335.6 563 -1461.3 585.3 -1335.6 643.8 -1335.6 679.3 -1496.2 643.1 -1496.2"/>
    <path class="st4" d="M789.5-1369.4v33.8h-32.3c-23.3,0-42.1-18.8-42.1-42.1v-84.8h-23.1v-33.8h23.1v-43.8h33.3v43.8h41.1v33.8h-41.1v72.6c0,11.3,9.2,20.5,20.5,20.5h20.6Z"/>
    <path class="st4" d="M1162.9-1335.6v-92.8c0-27.3-23.9-34.4-41.7-34.4s-41.4,7.5-41.7,32.4v94.9h-33.3v-221.3h33.3v73.3c11.6-9.2,29.8-13.6,47.5-13.6,13.5,0,26.8,2.6,36.7,6.7,18.7,7.9,32.4,25.6,32.4,46.9v107.9s-33.3,0-33.3,0Z"/>
    <path class="st4" d="M1255.3-1496.2v92.8c0,27.3,23.9,34.4,41.7,34.4s41.4-7.5,41.7-32.4v-94.9h33.3v160.6h-29.1l-4.2-12.6c-11.6,9.2-29.8,13.6-47.5,13.6-13.5,0-26.8-2.6-36.7-6.7-18.7-7.9-32.4-25.6-32.4-46.9v-107.9s33.3,0,33.3,0Z"/>
    <path class="st4" d="M124-1496.2l-4.2,11.9c-23.2-15.7-57.4-15.7-81.5-7.1-19.3,6.9-31.3,22.7-35.1,43-5.6,29.5-7.1,84.4,23.6,102.2,29.6,17.2,65.4,14.9,94.6-2.3v48.8H13.6v33.8h141v-230.2h-30.7ZM118.7-1392.1c-6,25.6-37.7,26.9-57.5,22.7-30.7-6.4-28.7-47.9-23.5-70.1,6.3-26.8,42.1-26.8,62.5-20.6,9.8,2.9,15,11.4,18.8,20.7,2.5,15.7,3.3,31.7-.4,47.4Z"/>
    <g>
      <g>
        <path class="st2" d="M-171-1505.8c0,5.2-4.2,9.4-9.4,9.4h-121.8c-2.5,0-4.9,1-6.6,2.7l-12,12c-1.8,1.8-2.7,4.1-2.7,6.6v116.4c0,2.5,1,4.9,2.7,6.6l14.4,14.4c1.8,1.8,4.1,2.7,6.6,2.7h119.5c5.2,0,9.4,4.2,9.4,9.4v24c0,5.2-4.2,9.4-9.4,9.4h-133.9c-5.2,0-9.4-4.2-9.4-9.4v-13.8c0-2.5-1-4.9-2.7-6.6l-10.2-10.2c-1.8-1.8-4.1-2.7-6.6-2.7h-13.3c-5.2,0-9.4-4.2-9.4-9.4v-142.8c0-5.2,4.2-9.4,9.4-9.4h10.9c2.5,0,4.9-1,6.6-2.7l12.6-12.6c1.8-1.8,2.7-4.1,2.7-6.6v-11.9c0-5.2,4.2-9.4,9.4-9.4h133.9c5.2,0,9.4,4.2,9.4,9.4v24.5Z"/>
        <rect class="st2" x="-275.1" y="-1437.8" width="104.1" height="43.8" rx="-675.1" ry="-675.1" transform="translate(935.9 -572.5) rotate(-45)"/>
      </g>
      <rect class="st2" x="-129.7" y="-1496.3" width="43.3" height="161.5" rx="-586.7" ry="-586.7"/>
    </g>
  </g>
  <g>
    <path class="st3" d="M1432.8-1216.2v48.5c29.1-17.3,65-19.5,94.6-2.3,30.7,17.8,29.2,72.8,23.6,102.2-3.9,20.3-15.9,36-35.1,43-24.1,8.6-58.3,8.6-81.5-7.1l-4.2,11.9h-30.7v-221.3h33.3v25.1ZM1435.5-1124.1c-3.7,15.6-2.9,31.6-.4,47.4,3.9,9.3,9,17.7,18.8,20.7,20.5,6.1,56.2,6.1,62.5-20.6,5.3-22.1,7.2-63.6-23.5-70.1-19.8-4.2-51.5-2.9-57.5,22.7Z"/>
    <path class="st3" d="M927.7-1020v-92.8c0-27.3-23.9-34.4-41.7-34.4s-41.4,7.5-41.7,32.4v94.9h-33.3v-221.3h33.3v73.3c11.6-9.2,29.8-13.6,47.5-13.6,13.5,0,26.8,2.6,36.7,6.7,18.7,7.9,32.4,25.6,32.4,46.9v107.9s-33.3,0-33.3,0Z"/>
    <polygon class="st3" points="216.9 -1146.9 216.9 -1020 183.7 -1020 183.7 -1180.7 286.7 -1180.7 286.7 -1146.9 216.9 -1146.9"/>
    <path class="st3" d="M375.5-1181.6h-22c-35.9,0-65,29.1-65,65v32.5c0,35.9,29.1,65,65,65h22c35.9,0,65-29.1,65-65v-32.5c0-35.9-29.1-65-65-65ZM408.1-1091.1c0,20.6-16.7,37.3-37.3,37.3h-12.7c-20.6,0-37.3-16.7-37.3-37.3v-18.6c0-20.6,16.7-37.3,37.3-37.3h12.7c20.6,0,37.3,16.7,37.3,37.3v18.6Z"/>
    <polygon class="st3" points="643.1 -1180.7 615.8 -1057.5 593.8 -1180.7 563 -1180.7 532.2 -1180.7 510.2 -1057.5 482.9 -1180.7 446.7 -1180.7 482.2 -1020 540.7 -1020 563 -1145.7 585.3 -1020 643.8 -1020 679.3 -1180.7 643.1 -1180.7"/>
    <path class="st3" d="M789.5-1053.8v33.8h-32.3c-23.3,0-42.1-18.8-42.1-42.1v-84.8h-23.1v-33.8h23.1v-43.8h33.3v43.8h41.1v33.8h-41.1v72.6c0,11.3,9.2,20.5,20.5,20.5h20.6Z"/>
    <path class="st3" d="M1162.9-1020v-92.8c0-27.3-23.9-34.4-41.7-34.4s-41.4,7.5-41.7,32.4v94.9h-33.3v-221.3h33.3v73.3c11.6-9.2,29.8-13.6,47.5-13.6,13.5,0,26.8,2.6,36.7,6.7,18.7,7.9,32.4,25.6,32.4,46.9v107.9s-33.3,0-33.3,0Z"/>
    <path class="st3" d="M1255.3-1180.6v92.8c0,27.3,23.9,34.4,41.7,34.4s41.4-7.5,41.7-32.4v-94.9h33.3v160.6h-29.1l-4.2-12.6c-11.6,9.2-29.8,13.6-47.5,13.6-13.5,0-26.8-2.6-36.7-6.7-18.7-7.9-32.4-25.6-32.4-46.9v-107.9s33.3,0,33.3,0Z"/>
    <path class="st3" d="M124-1180.6l-4.2,11.9c-23.2-15.7-57.4-15.7-81.5-7.1-19.3,6.9-31.3,22.7-35.1,43-5.6,29.5-7.1,84.4,23.6,102.2,29.6,17.2,65.4,14.9,94.6-2.3v48.8H13.6v33.8h141v-230.2h-30.7ZM118.7-1076.5c-6,25.6-37.7,26.9-57.5,22.7-30.7-6.4-28.7-47.9-23.5-70.1,6.3-26.8,42.1-26.8,62.5-20.6,9.8,2.9,15,11.4,18.8,20.7,2.5,15.7,3.3,31.7-.4,47.4Z"/>
    <g>
      <g>
        <path class="st2" d="M-171-1190.3c0,5.2-4.2,9.4-9.4,9.4h-121.8c-2.5,0-4.9,1-6.6,2.7l-12,12c-1.8,1.8-2.7,4.1-2.7,6.6v116.4c0,2.5,1,4.9,2.7,6.6l14.4,14.4c1.8,1.8,4.1,2.7,6.6,2.7h119.5c5.2,0,9.4,4.2,9.4,9.4v24c0,5.2-4.2,9.4-9.4,9.4h-133.9c-5.2,0-9.4-4.2-9.4-9.4v-13.8c0-2.5-1-4.9-2.7-6.6l-10.2-10.2c-1.8-1.8-4.1-2.7-6.6-2.7h-13.3c-5.2,0-9.4-4.2-9.4-9.4v-142.8c0-5.2,4.2-9.4,9.4-9.4h10.9c2.5,0,4.9-1,6.6-2.7l12.6-12.6c1.8-1.8,2.7-4.1,2.7-6.6v-11.9c0-5.2,4.2-9.4,9.4-9.4h133.9c5.2,0,9.4,4.2,9.4,9.4v24.5Z"/>
        <rect class="st2" x="-275.1" y="-1122.2" width="104.1" height="43.8" rx="-517.3" ry="-517.3" transform="translate(712.7 -480) rotate(-45)"/>
      </g>
      <rect class="st2" x="-129.7" y="-1180.8" width="43.3" height="161.5" rx="-428.9" ry="-428.9"/>
    </g>
  </g>
  <g>
    <path class="st3" d="M1432.8-900.6v48.5c29.1-17.3,65-19.5,94.6-2.3,30.7,17.8,29.2,72.8,23.6,102.2-3.9,20.3-15.9,36-35.1,43-24.1,8.6-58.3,8.6-81.5-7.1l-4.2,11.9h-30.7v-221.3h33.3v25.1ZM1435.5-808.6c-3.7,15.6-2.9,31.6-.4,47.4,3.9,9.3,9,17.7,18.8,20.7,20.5,6.1,56.2,6.1,62.5-20.6,5.3-22.1,7.2-63.6-23.5-70.1-19.8-4.2-51.5-2.9-57.5,22.7Z"/>
    <path class="st3" d="M927.7-704.4v-92.8c0-27.3-23.9-34.4-41.7-34.4s-41.4,7.5-41.7,32.4v94.9h-33.3v-221.3h33.3v73.3c11.6-9.2,29.8-13.6,47.5-13.6,13.5,0,26.8,2.6,36.7,6.7,18.7,7.9,32.4,25.6,32.4,46.9v107.9s-33.3,0-33.3,0Z"/>
    <polygon class="st3" points="216.9 -831.3 216.9 -704.4 183.7 -704.4 183.7 -865.1 286.7 -865.1 286.7 -831.3 216.9 -831.3"/>
    <path class="st3" d="M375.5-866h-22c-35.9,0-65,29.1-65,65v32.5c0,35.9,29.1,65,65,65h22c35.9,0,65-29.1,65-65v-32.5c0-35.9-29.1-65-65-65ZM408.1-775.5c0,20.6-16.7,37.3-37.3,37.3h-12.7c-20.6,0-37.3-16.7-37.3-37.3v-18.6c0-20.6,16.7-37.3,37.3-37.3h12.7c20.6,0,37.3,16.7,37.3,37.3v18.6Z"/>
    <polygon class="st3" points="643.1 -865.1 615.8 -741.9 593.8 -865.1 563 -865.1 532.2 -865.1 510.2 -741.9 482.9 -865.1 446.7 -865.1 482.2 -704.4 540.7 -704.4 563 -830.1 585.3 -704.4 643.8 -704.4 679.3 -865.1 643.1 -865.1"/>
    <path class="st3" d="M789.5-738.2v33.8h-32.3c-23.3,0-42.1-18.8-42.1-42.1v-84.8h-23.1v-33.8h23.1v-43.8h33.3v43.8h41.1v33.8h-41.1v72.6c0,11.3,9.2,20.5,20.5,20.5h20.6Z"/>
    <path class="st3" d="M1162.9-704.4v-92.8c0-27.3-23.9-34.4-41.7-34.4s-41.4,7.5-41.7,32.4v94.9h-33.3v-221.3h33.3v73.3c11.6-9.2,29.8-13.6,47.5-13.6,13.5,0,26.8,2.6,36.7,6.7,18.7,7.9,32.4,25.6,32.4,46.9v107.9s-33.3,0-33.3,0Z"/>
    <path class="st3" d="M1255.3-865v92.8c0,27.3,23.9,34.4,41.7,34.4s41.4-7.5,41.7-32.4v-94.9h33.3v160.6h-29.1l-4.2-12.6c-11.6,9.2-29.8,13.6-47.5,13.6-13.5,0-26.8-2.6-36.7-6.7-18.7-7.9-32.4-25.6-32.4-46.9v-107.9s33.3,0,33.3,0Z"/>
    <path class="st3" d="M124-865.1l-4.2,11.9c-23.2-15.7-57.4-15.7-81.5-7.1-19.3,6.9-31.3,22.7-35.1,43-5.6,29.5-7.1,84.4,23.6,102.2,29.6,17.2,65.4,14.9,94.6-2.3v48.8H13.6v33.8h141v-230.2h-30.7ZM118.7-760.9c-6,25.6-37.7,26.9-57.5,22.7-30.7-6.4-28.7-47.9-23.5-70.1,6.3-26.8,42.1-26.8,62.5-20.6,9.8,2.9,15,11.4,18.8,20.7,2.5,15.7,3.3,31.7-.4,47.4Z"/>
    <g>
      <g>
        <path class="st4" d="M-171-874.7c0,5.2-4.2,9.4-9.4,9.4h-121.8c-2.5,0-4.9,1-6.6,2.7l-12,12c-1.8,1.8-2.7,4.1-2.7,6.6v116.4c0,2.5,1,4.9,2.7,6.6l14.4,14.4c1.8,1.8,4.1,2.7,6.6,2.7h119.5c5.2,0,9.4,4.2,9.4,9.4v24c0,5.2-4.2,9.4-9.4,9.4h-133.9c-5.2,0-9.4-4.2-9.4-9.4v-13.8c0-2.5-1-4.9-2.7-6.6l-10.2-10.2c-1.8-1.8-4.1-2.7-6.6-2.7h-13.3c-5.2,0-9.4-4.2-9.4-9.4v-142.8c0-5.2,4.2-9.4,9.4-9.4h10.9c2.5,0,4.9-1,6.6-2.7l12.6-12.6c1.8-1.8,2.7-4.1,2.7-6.6v-11.9c0-5.2,4.2-9.4,9.4-9.4h133.9c5.2,0,9.4,4.2,9.4,9.4v24.5Z"/>
        <rect class="st4" x="-275.1" y="-806.7" width="104.1" height="43.8" rx="-359.6" ry="-359.6" transform="translate(489.6 -387.6) rotate(-45)"/>
      </g>
      <rect class="st4" x="-129.7" y="-865.2" width="43.3" height="161.5" rx="-271.1" ry="-271.1"/>
    </g>
  </g>
  <g>
    <g>
      <path class="st3" d="M188.8-3312.8c0,7.6-6.2,13.8-13.8,13.8H-4.1c-3.7,0-7.2,1.5-9.8,4l-17.7,17.7c-2.6,2.6-4,6.1-4,9.8v171.1c0,3.7,1.5,7.2,4,9.8l21.1,21.1c2.6,2.6,6.1,4,9.8,4h175.6c7.6,0,13.8,6.2,13.8,13.8v35.2c0,7.6-6.2,13.8-13.8,13.8H-21.7c-7.6,0-13.8-6.2-13.8-13.8v-20.3c0-3.7-1.5-7.2-4-9.8l-15-15c-2.6-2.6-6.1-4-9.8-4h-19.5c-7.6,0-13.8-6.2-13.8-13.8v-209.9c0-7.6,6.2-13.8,13.8-13.8h16c3.7,0,7.2-1.5,9.8-4l18.5-18.5c2.6-2.6,4-6.1,4-9.8v-17.6c0-7.6,6.2-13.8,13.8-13.8h196.7c7.6,0,13.8,6.2,13.8,13.8v36Z"/>
      <rect class="st3" x="35.8" y="-3212.8" width="153.1" height="64.4" rx="-1542" ry="-1542" transform="translate(2281.9 -852.2) rotate(-45)"/>
    </g>
    <rect class="st3" x="249.5" y="-3298.8" width="63.6" height="237.4" rx="-1412.1" ry="-1412.1"/>
  </g>
  <rect class="st3" x="1845.3" y="-4863.1" width="1085" height="1085"/>
  <rect class="st4" x="-1574.7" y="-3723.1" width="1085" height="1085"/>
  <g>
    <g>
      <path class="st2" d="M-951.2-3312.8c0,7.6-6.2,13.8-13.8,13.8h-179.1c-3.7,0-7.2,1.5-9.8,4l-17.7,17.7c-2.6,2.6-4,6.1-4,9.8v171.1c0,3.7,1.5,7.2,4,9.8l21.1,21.1c2.6,2.6,6.1,4,9.8,4h175.6c7.6,0,13.8,6.2,13.8,13.8v35.2c0,7.6-6.2,13.8-13.8,13.8h-196.7c-7.6,0-13.8-6.2-13.8-13.8v-20.3c0-3.7-1.5-7.2-4-9.8l-15-15c-2.6-2.6-6.1-4-9.8-4h-19.5c-7.6,0-13.8-6.2-13.8-13.8v-209.9c0-7.6,6.2-13.8,13.8-13.8h16c3.7,0,7.2-1.5,9.8-4l18.5-18.5c2.6-2.6,4-6.1,4-9.8v-17.6c0-7.6,6.2-13.8,13.8-13.8h196.7c7.6,0,13.8,6.2,13.8,13.8v36Z"/>
      <rect class="st2" x="-1104.2" y="-3212.8" width="153.1" height="64.4" rx="-1542" ry="-1542" transform="translate(1948 -1658.3) rotate(-45)"/>
    </g>
    <rect class="st2" x="-890.5" y="-3298.8" width="63.6" height="237.4" rx="-1412.1" ry="-1412.1"/>
  </g>
  <rect class="st3" x="-2714.7" y="-3723.1" width="1085" height="1085"/>
  <g>
    <g>
      <path class="st4" d="M-2091.2-3312.8c0,7.6-6.2,13.8-13.8,13.8h-179.1c-3.7,0-7.2,1.5-9.8,4l-17.7,17.7c-2.6,2.6-4,6.1-4,9.8v171.1c0,3.7,1.5,7.2,4,9.8l21.1,21.1c2.6,2.6,6.1,4,9.8,4h175.6c7.6,0,13.8,6.2,13.8,13.8v35.2c0,7.6-6.2,13.8-13.8,13.8h-196.7c-7.6,0-13.8-6.2-13.8-13.8v-20.3c0-3.7-1.5-7.2-4-9.8l-15-15c-2.6-2.6-6.1-4-9.8-4h-19.5c-7.6,0-13.8-6.2-13.8-13.8v-209.9c0-7.6,6.2-13.8,13.8-13.8h16c3.7,0,7.2-1.5,9.8-4l18.5-18.5c2.6-2.6,4-6.1,4-9.8v-17.6c0-7.6,6.2-13.8,13.8-13.8h196.7c7.6,0,13.8,6.2,13.8,13.8v36Z"/>
      <rect class="st4" x="-2244.2" y="-3212.8" width="153.1" height="64.4" rx="-1542" ry="-1542" transform="translate(1614.1 -2464.4) rotate(-45)"/>
    </g>
    <rect class="st4" x="-2030.5" y="-3298.8" width="63.6" height="237.4" rx="-1412.1" ry="-1412.1"/>
  </g>
  <g>
    <g>
      <path class="st2" d="M2468.8-4452.8c0,7.6-6.2,13.8-13.8,13.8h-179.1c-3.7,0-7.2,1.5-9.8,4l-17.7,17.7c-2.6,2.6-4,6.1-4,9.8v171.1c0,3.7,1.5,7.2,4,9.8l21.1,21.1c2.6,2.6,6.1,4,9.8,4h175.6c7.6,0,13.8,6.2,13.8,13.8v35.2c0,7.6-6.2,13.8-13.8,13.8h-196.7c-7.6,0-13.8-6.2-13.8-13.8v-20.3c0-3.7-1.5-7.2-4-9.8l-15-15c-2.6-2.6-6.1-4-9.8-4h-19.5c-7.6,0-13.8-6.2-13.8-13.8v-209.9c0-7.6,6.2-13.8,13.8-13.8h16c3.7,0,7.2-1.5,9.8-4l18.5-18.5c2.6-2.6,4-6.1,4-9.8v-17.6c0-7.6,6.2-13.8,13.8-13.8h196.7c7.6,0,13.8,6.2,13.8,13.8v36Z"/>
      <rect class="st2" x="2315.8" y="-4352.8" width="153.1" height="64.4" rx="-2112" ry="-2112" transform="translate(3755.8 426.1) rotate(-45)"/>
    </g>
    <rect class="st2" x="2529.5" y="-4438.8" width="63.6" height="237.4" rx="-1982.1" ry="-1982.1"/>
  </g>
  <g>
    <g>
      <path class="st2" d="M2613.5-2444.4c0,13.4-10.8,24.2-24.2,24.2h-314c-6.4,0-12.6,2.5-17.1,7.1l-31,31c-4.5,4.5-7.1,10.7-7.1,17.1v300.1c0,6.4,2.5,12.6,7.1,17.1l37,37c4.5,4.5,10.7,7.1,17.1,7.1h307.9c13.4,0,24.2,10.8,24.2,24.2v61.8c0,13.4-10.8,24.2-24.2,24.2h-344.9c-13.4,0-24.2-10.8-24.2-24.2v-35.5c0-6.4-2.5-12.6-7.1-17.1l-26.3-26.3c-4.5-4.5-10.7-7.1-17.1-7.1h-34.2c-13.4,0-24.2-10.8-24.2-24.2v-368.1c0-13.4,10.8-24.2,24.2-24.2h28.1c6.4,0,12.6-2.5,17.1-7.1l32.4-32.4c4.5-4.5,7.1-10.7,7.1-17.1v-30.8c0-13.4,10.8-24.2,24.2-24.2h344.9c13.4,0,24.2,10.8,24.2,24.2v63.1Z"/>
      <rect class="st2" x="2345.1" y="-2269.1" width="268.3" height="112.8" rx="-1021.7" ry="-1021.7" transform="translate(2290.8 1105.1) rotate(-45)"/>
    </g>
    <rect class="st2" x="2719.9" y="-2419.9" width="111.5" height="416.2" rx="-793.8" ry="-793.8"/>
  </g>
  <g>
    <g>
      <path class="st4" d="M2613.5-1713.3c0,13.4-10.8,24.2-24.2,24.2h-314c-6.4,0-12.6,2.5-17.1,7.1l-31,31c-4.5,4.5-7.1,10.7-7.1,17.1v300.1c0,6.4,2.5,12.6,7.1,17.1l37,37c4.5,4.5,10.7,7.1,17.1,7.1h307.9c13.4,0,24.2,10.8,24.2,24.2v61.8c0,13.4-10.8,24.2-24.2,24.2h-344.9c-13.4,0-24.2-10.8-24.2-24.2v-35.5c0-6.4-2.5-12.6-7.1-17.1l-26.3-26.3c-4.5-4.5-10.7-7.1-17.1-7.1h-34.2c-13.4,0-24.2-10.8-24.2-24.2v-368.1c0-13.4,10.8-24.2,24.2-24.2h28.1c6.4,0,12.6-2.5,17.1-7.1l32.4-32.4c4.5-4.5,7.1-10.7,7.1-17.1v-30.8c0-13.4,10.8-24.2,24.2-24.2h344.9c13.4,0,24.2,10.8,24.2,24.2v63.1Z"/>
      <rect class="st4" x="2345.1" y="-1538" width="268.3" height="112.8" rx="-656.1" ry="-656.1" transform="translate(1773.8 1319.2) rotate(-45)"/>
    </g>
    <rect class="st4" x="2719.9" y="-1688.8" width="111.5" height="416.2" rx="-428.3" ry="-428.3"/>
  </g>
  <g>
    <g>
      <path class="st3" d="M2613.5-982.2c0,13.4-10.8,24.2-24.2,24.2h-314c-6.4,0-12.6,2.5-17.1,7.1l-31,31c-4.5,4.5-7.1,10.7-7.1,17.1v300.1c0,6.4,2.5,12.6,7.1,17.1l37,37c4.5,4.5,10.7,7.1,17.1,7.1h307.9c13.4,0,24.2,10.8,24.2,24.2v61.8c0,13.4-10.8,24.2-24.2,24.2h-344.9c-13.4,0-24.2-10.8-24.2-24.2v-35.5c0-6.4-2.5-12.6-7.1-17.1l-26.3-26.3c-4.5-4.5-10.7-7.1-17.1-7.1h-34.2c-13.4,0-24.2-10.8-24.2-24.2v-368.1c0-13.4,10.8-24.2,24.2-24.2h28.1c6.4,0,12.6-2.5,17.1-7.1l32.4-32.4c4.5-4.5,7.1-10.7,7.1-17.1v-30.8c0-13.4,10.8-24.2,24.2-24.2h344.9c13.4,0,24.2,10.8,24.2,24.2v63.1Z"/>
      <rect class="st3" x="2345.1" y="-806.9" width="268.3" height="112.8" rx="-290.6" ry="-290.6" transform="translate(1256.8 1533.3) rotate(-45)"/>
    </g>
    <rect class="st3" x="2719.9" y="-957.7" width="111.5" height="416.2" rx="-62.7" ry="-62.7"/>
  </g>
  <path class="st4" d="M1432.8-2478.4v48.5c29.1-17.3,65-19.5,94.6-2.3,30.7,17.8,29.2,72.8,23.6,102.2-3.9,20.3-15.9,36-35.1,43-24.1,8.6-58.3,8.6-81.5-7.1l-4.2,11.9h-30.7v-221.3h33.3v25.1ZM1435.5-2386.4c-3.7,15.6-2.9,31.6-.4,47.4,3.9,9.3,9,17.7,18.8,20.7,20.5,6.1,56.2,6.1,62.5-20.6,5.3-22.1,7.2-63.6-23.5-70.1-19.8-4.2-51.5-2.9-57.5,22.7Z"/>
  <path class="st4" d="M927.7-2282.2v-92.8c0-27.3-23.9-34.4-41.7-34.4s-41.4,7.5-41.7,32.4v94.9h-33.3v-221.3h33.3v73.3c11.6-9.2,29.8-13.6,47.5-13.6,13.5,0,26.8,2.6,36.7,6.7,18.7,7.9,32.4,25.6,32.4,46.9v107.9s-33.3,0-33.3,0Z"/>
  <polygon class="st4" points="216.9 -2409.1 216.9 -2282.2 183.7 -2282.2 183.7 -2442.9 286.7 -2442.9 286.7 -2409.1 216.9 -2409.1"/>
  <path class="st4" d="M375.5-2443.8h-22c-35.9,0-65,29.1-65,65v32.5c0,35.9,29.1,65,65,65h22c35.9,0,65-29.1,65-65v-32.5c0-35.9-29.1-65-65-65ZM408.1-2353.3c0,20.6-16.7,37.3-37.3,37.3h-12.7c-20.6,0-37.3-16.7-37.3-37.3v-18.6c0-20.6,16.7-37.3,37.3-37.3h12.7c20.6,0,37.3,16.7,37.3,37.3v18.6Z"/>
  <polygon class="st4" points="643.1 -2442.9 615.8 -2319.7 593.8 -2442.9 563 -2442.9 532.2 -2442.9 510.2 -2319.7 482.9 -2442.9 446.7 -2442.9 482.2 -2282.2 540.7 -2282.2 563 -2407.9 585.3 -2282.2 643.8 -2282.2 679.3 -2442.9 643.1 -2442.9"/>
  <path class="st4" d="M789.5-2316.1v33.8h-32.3c-23.3,0-42.1-18.8-42.1-42.1v-84.8h-23.1v-33.8h23.1v-43.8h33.3v43.8h41.1v33.8h-41.1v72.6c0,11.3,9.2,20.5,20.5,20.5h20.6Z"/>
  <path class="st4" d="M1162.9-2282.2v-92.8c0-27.3-23.9-34.4-41.7-34.4s-41.4,7.5-41.7,32.4v94.9h-33.3v-221.3h33.3v73.3c11.6-9.2,29.8-13.6,47.5-13.6,13.5,0,26.8,2.6,36.7,6.7,18.7,7.9,32.4,25.6,32.4,46.9v107.9s-33.3,0-33.3,0Z"/>
  <path class="st4" d="M1255.3-2442.8v92.8c0,27.3,23.9,34.4,41.7,34.4s41.4-7.5,41.7-32.4v-94.9h33.3v160.6h-29.1l-4.2-12.6c-11.6,9.2-29.8,13.6-47.5,13.6-13.5,0-26.8-2.6-36.7-6.7-18.7-7.9-32.4-25.6-32.4-46.9v-107.9s33.3,0,33.3,0Z"/>
  <path class="st4" d="M124-2442.9l-4.2,11.9c-23.2-15.7-57.4-15.7-81.5-7.1-19.3,6.9-31.3,22.7-35.1,43-5.6,29.5-7.1,84.4,23.6,102.2,29.6,17.2,65.4,14.9,94.6-2.3v48.8H13.6v33.8h141v-230.2h-30.7ZM118.7-2338.7c-6,25.6-37.7,26.9-57.5,22.7-30.7-6.4-28.7-47.9-23.5-70.1,6.3-26.8,42.1-26.8,62.5-20.6,9.8,2.9,15,11.4,18.8,20.7,2.5,15.7,3.3,31.7-.4,47.4Z"/>
  <path class="st4" d="M1432.8-2162.8v48.5c29.1-17.3,65-19.5,94.6-2.3,30.7,17.8,29.2,72.8,23.6,102.2-3.9,20.3-15.9,36-35.1,43-24.1,8.6-58.3,8.6-81.5-7.1l-4.2,11.9h-30.7v-221.3h33.3v25.1ZM1435.5-2070.8c-3.7,15.6-2.9,31.6-.4,47.4,3.9,9.3,9,17.7,18.8,20.7,20.5,6.1,56.2,6.1,62.5-20.6,5.3-22.1,7.2-63.6-23.5-70.1-19.8-4.2-51.5-2.9-57.5,22.7Z"/>
  <path class="st4" d="M927.7-1966.7v-92.8c0-27.3-23.9-34.4-41.7-34.4s-41.4,7.5-41.7,32.4v94.9h-33.3v-221.3h33.3v73.3c11.6-9.2,29.8-13.6,47.5-13.6,13.5,0,26.8,2.6,36.7,6.7,18.7,7.9,32.4,25.6,32.4,46.9v107.9s-33.3,0-33.3,0Z"/>
  <polygon class="st4" points="216.9 -2093.6 216.9 -1966.7 183.7 -1966.7 183.7 -2127.4 286.7 -2127.4 286.7 -2093.6 216.9 -2093.6"/>
  <path class="st4" d="M375.5-2128.3h-22c-35.9,0-65,29.1-65,65v32.5c0,35.9,29.1,65,65,65h22c35.9,0,65-29.1,65-65v-32.5c0-35.9-29.1-65-65-65ZM408.1-2037.7c0,20.6-16.7,37.3-37.3,37.3h-12.7c-20.6,0-37.3-16.7-37.3-37.3v-18.6c0-20.6,16.7-37.3,37.3-37.3h12.7c20.6,0,37.3,16.7,37.3,37.3v18.6Z"/>
  <polygon class="st4" points="643.1 -2127.4 615.8 -2004.2 593.8 -2127.4 563 -2127.4 532.2 -2127.4 510.2 -2004.2 482.9 -2127.4 446.7 -2127.4 482.2 -1966.7 540.7 -1966.7 563 -2092.4 585.3 -1966.7 643.8 -1966.7 679.3 -2127.4 643.1 -2127.4"/>
  <path class="st4" d="M789.5-2000.5v33.8h-32.3c-23.3,0-42.1-18.8-42.1-42.1v-84.8h-23.1v-33.8h23.1v-43.8h33.3v43.8h41.1v33.8h-41.1v72.6c0,11.3,9.2,20.5,20.5,20.5h20.6Z"/>
  <path class="st4" d="M1162.9-1966.7v-92.8c0-27.3-23.9-34.4-41.7-34.4s-41.4,7.5-41.7,32.4v94.9h-33.3v-221.3h33.3v73.3c11.6-9.2,29.8-13.6,47.5-13.6,13.5,0,26.8,2.6,36.7,6.7,18.7,7.9,32.4,25.6,32.4,46.9v107.9s-33.3,0-33.3,0Z"/>
  <path class="st4" d="M1255.3-2127.3v92.8c0,27.3,23.9,34.4,41.7,34.4s41.4-7.5,41.7-32.4v-94.9h33.3v160.6h-29.1l-4.2-12.6c-11.6,9.2-29.8,13.6-47.5,13.6-13.5,0-26.8-2.6-36.7-6.7-18.7-7.9-32.4-25.6-32.4-46.9v-107.9s33.3,0,33.3,0Z"/>
  <path class="st4" d="M124-2127.3l-4.2,11.9c-23.2-15.7-57.4-15.7-81.5-7.1-19.3,6.9-31.3,22.7-35.1,43-5.6,29.5-7.1,84.4,23.6,102.2,29.6,17.2,65.4,14.9,94.6-2.3v48.8H13.6v33.8h141v-230.2h-30.7ZM118.7-2023.2c-6,25.6-37.7,26.9-57.5,22.7-30.7-6.4-28.7-47.9-23.5-70.1,6.3-26.8,42.1-26.8,62.5-20.6,9.8,2.9,15,11.4,18.8,20.7,2.5,15.7,3.3,31.7-.4,47.4Z"/>
  <path class="st4" d="M1432.8-1847.3v48.5c29.1-17.3,65-19.5,94.6-2.3,30.7,17.8,29.2,72.8,23.6,102.2-3.9,20.3-15.9,36-35.1,43-24.1,8.6-58.3,8.6-81.5-7.1l-4.2,11.9h-30.7v-221.3h33.3v25.1ZM1435.5-1755.3c-3.7,15.6-2.9,31.6-.4,47.4,3.9,9.3,9,17.7,18.8,20.7,20.5,6.1,56.2,6.1,62.5-20.6,5.3-22.1,7.2-63.6-23.5-70.1-19.8-4.2-51.5-2.9-57.5,22.7Z"/>
  <path class="st4" d="M927.7-1651.1v-92.8c0-27.3-23.9-34.4-41.7-34.4s-41.4,7.5-41.7,32.4v94.9h-33.3v-221.3h33.3v73.3c11.6-9.2,29.8-13.6,47.5-13.6,13.5,0,26.8,2.6,36.7,6.7,18.7,7.9,32.4,25.6,32.4,46.9v107.9s-33.3,0-33.3,0Z"/>
  <polygon class="st4" points="216.9 -1778 216.9 -1651.1 183.7 -1651.1 183.7 -1811.8 286.7 -1811.8 286.7 -1778 216.9 -1778"/>
  <path class="st4" d="M375.5-1812.7h-22c-35.9,0-65,29.1-65,65v32.5c0,35.9,29.1,65,65,65h22c35.9,0,65-29.1,65-65v-32.5c0-35.9-29.1-65-65-65ZM408.1-1722.2c0,20.6-16.7,37.3-37.3,37.3h-12.7c-20.6,0-37.3-16.7-37.3-37.3v-18.6c0-20.6,16.7-37.3,37.3-37.3h12.7c20.6,0,37.3,16.7,37.3,37.3v18.6Z"/>
  <polygon class="st4" points="643.1 -1811.8 615.8 -1688.6 593.8 -1811.8 563 -1811.8 532.2 -1811.8 510.2 -1688.6 482.9 -1811.8 446.7 -1811.8 482.2 -1651.1 540.7 -1651.1 563 -1776.8 585.3 -1651.1 643.8 -1651.1 679.3 -1811.8 643.1 -1811.8"/>
  <path class="st4" d="M789.5-1684.9v33.8h-32.3c-23.3,0-42.1-18.8-42.1-42.1v-84.8h-23.1v-33.8h23.1v-43.8h33.3v43.8h41.1v33.8h-41.1v72.6c0,11.3,9.2,20.5,20.5,20.5h20.6Z"/>
  <path class="st4" d="M1162.9-1651.1v-92.8c0-27.3-23.9-34.4-41.7-34.4s-41.4,7.5-41.7,32.4v94.9h-33.3v-221.3h33.3v73.3c11.6-9.2,29.8-13.6,47.5-13.6,13.5,0,26.8,2.6,36.7,6.7,18.7,7.9,32.4,25.6,32.4,46.9v107.9s-33.3,0-33.3,0Z"/>
  <path class="st4" d="M1255.3-1811.7v92.8c0,27.3,23.9,34.4,41.7,34.4s41.4-7.5,41.7-32.4v-94.9h33.3v160.6h-29.1l-4.2-12.6c-11.6,9.2-29.8,13.6-47.5,13.6-13.5,0-26.8-2.6-36.7-6.7-18.7-7.9-32.4-25.6-32.4-46.9v-107.9s33.3,0,33.3,0Z"/>
  <path class="st4" d="M124-1811.8l-4.2,11.9c-23.2-15.7-57.4-15.7-81.5-7.1-19.3,6.9-31.3,22.7-35.1,43-5.6,29.5-7.1,84.4,23.6,102.2,29.6,17.2,65.4,14.9,94.6-2.3v48.8H13.6v33.8h141v-230.2h-30.7ZM118.7-1707.6c-6,25.6-37.7,26.9-57.5,22.7-30.7-6.4-28.7-47.9-23.5-70.1,6.3-26.8,42.1-26.8,62.5-20.6,9.8,2.9,15,11.4,18.8,20.7,2.5,15.7,3.3,31.7-.4,47.4Z"/>
  <path class="st4" d="M1432.8-1531.7v48.5c29.1-17.3,65-19.5,94.6-2.3,30.7,17.8,29.2,72.8,23.6,102.2-3.9,20.3-15.9,36-35.1,43-24.1,8.6-58.3,8.6-81.5-7.1l-4.2,11.9h-30.7v-221.3h33.3v25.1ZM1435.5-1439.7c-3.7,15.6-2.9,31.6-.4,47.4,3.9,9.3,9,17.7,18.8,20.7,20.5,6.1,56.2,6.1,62.5-20.6,5.3-22.1,7.2-63.6-23.5-70.1-19.8-4.2-51.5-2.9-57.5,22.7Z"/>
  <path class="st4" d="M927.7-1335.6v-92.8c0-27.3-23.9-34.4-41.7-34.4s-41.4,7.5-41.7,32.4v94.9h-33.3v-221.3h33.3v73.3c11.6-9.2,29.8-13.6,47.5-13.6,13.5,0,26.8,2.6,36.7,6.7,18.7,7.9,32.4,25.6,32.4,46.9v107.9s-33.3,0-33.3,0Z"/>
  <polygon class="st4" points="216.9 -1462.4 216.9 -1335.6 183.7 -1335.6 183.7 -1496.2 286.7 -1496.2 286.7 -1462.4 216.9 -1462.4"/>
  <path class="st4" d="M375.5-1497.2h-22c-35.9,0-65,29.1-65,65v32.5c0,35.9,29.1,65,65,65h22c35.9,0,65-29.1,65-65v-32.5c0-35.9-29.1-65-65-65ZM408.1-1406.6c0,20.6-16.7,37.3-37.3,37.3h-12.7c-20.6,0-37.3-16.7-37.3-37.3v-18.6c0-20.6,16.7-37.3,37.3-37.3h12.7c20.6,0,37.3,16.7,37.3,37.3v18.6Z"/>
  <polygon class="st4" points="643.1 -1496.2 615.8 -1373.1 593.8 -1496.2 563 -1496.2 532.2 -1496.2 510.2 -1373.1 482.9 -1496.2 446.7 -1496.2 482.2 -1335.6 540.7 -1335.6 563 -1461.3 585.3 -1335.6 643.8 -1335.6 679.3 -1496.2 643.1 -1496.2"/>
  <path class="st4" d="M789.5-1369.4v33.8h-32.3c-23.3,0-42.1-18.8-42.1-42.1v-84.8h-23.1v-33.8h23.1v-43.8h33.3v43.8h41.1v33.8h-41.1v72.6c0,11.3,9.2,20.5,20.5,20.5h20.6Z"/>
  <path class="st4" d="M1162.9-1335.6v-92.8c0-27.3-23.9-34.4-41.7-34.4s-41.4,7.5-41.7,32.4v94.9h-33.3v-221.3h33.3v73.3c11.6-9.2,29.8-13.6,47.5-13.6,13.5,0,26.8,2.6,36.7,6.7,18.7,7.9,32.4,25.6,32.4,46.9v107.9s-33.3,0-33.3,0Z"/>
  <path class="st4" d="M1255.3-1496.2v92.8c0,27.3,23.9,34.4,41.7,34.4s41.4-7.5,41.7-32.4v-94.9h33.3v160.6h-29.1l-4.2-12.6c-11.6,9.2-29.8,13.6-47.5,13.6-13.5,0-26.8-2.6-36.7-6.7-18.7-7.9-32.4-25.6-32.4-46.9v-107.9s33.3,0,33.3,0Z"/>
  <path class="st4" d="M124-1496.2l-4.2,11.9c-23.2-15.7-57.4-15.7-81.5-7.1-19.3,6.9-31.3,22.7-35.1,43-5.6,29.5-7.1,84.4,23.6,102.2,29.6,17.2,65.4,14.9,94.6-2.3v48.8H13.6v33.8h141v-230.2h-30.7ZM118.7-1392.1c-6,25.6-37.7,26.9-57.5,22.7-30.7-6.4-28.7-47.9-23.5-70.1,6.3-26.8,42.1-26.8,62.5-20.6,9.8,2.9,15,11.4,18.8,20.7,2.5,15.7,3.3,31.7-.4,47.4Z"/>
  <g>
    <path class="st3" d="M1432.8,434.7v48.5c29.1-17.3,65-19.5,94.6-2.3,30.7,17.8,29.2,72.8,23.6,102.2-3.9,20.3-15.9,36-35.1,43-24.1,8.6-58.3,8.6-81.5-7.1l-4.2,11.9h-30.7v-221.3h33.3v25.1ZM1435.5,526.7c-3.7,15.6-2.9,31.6-.4,47.4,3.9,9.3,9,17.7,18.8,20.7,20.5,6.1,56.2,6.1,62.5-20.6,5.3-22.1,7.2-63.6-23.5-70.1-19.8-4.2-51.5-2.9-57.5,22.7Z"/>
    <path class="st3" d="M927.7,630.9v-92.8c0-27.3-23.9-34.4-41.7-34.4s-41.4,7.5-41.7,32.4v94.9h-33.3v-221.3h33.3v73.3c11.6-9.2,29.8-13.6,47.5-13.6,13.5,0,26.8,2.6,36.7,6.7,18.7,7.9,32.4,25.6,32.4,46.9v107.9s-33.3,0-33.3,0Z"/>
    <polygon class="st3" points="216.9 504 216.9 630.9 183.7 630.9 183.7 470.2 286.7 470.2 286.7 504 216.9 504"/>
    <path class="st3" d="M375.5,469.3h-22c-35.9,0-65,29.1-65,65v32.5c0,35.9,29.1,65,65,65h22c35.9,0,65-29.1,65-65v-32.5c0-35.9-29.1-65-65-65ZM408.1,559.8c0,20.6-16.7,37.3-37.3,37.3h-12.7c-20.6,0-37.3-16.7-37.3-37.3v-18.6c0-20.6,16.7-37.3,37.3-37.3h12.7c20.6,0,37.3,16.7,37.3,37.3v18.6Z"/>
    <polygon class="st3" points="643.1 470.2 615.8 593.4 593.8 470.2 563 470.2 532.2 470.2 510.2 593.4 482.9 470.2 446.7 470.2 482.2 630.9 540.7 630.9 563 505.2 585.3 630.9 643.8 630.9 679.3 470.2 643.1 470.2"/>
    <path class="st3" d="M789.5,597.1v33.8h-32.3c-23.3,0-42.1-18.8-42.1-42.1v-84.8h-23.1v-33.8h23.1v-43.8h33.3v43.8h41.1v33.8h-41.1v72.6c0,11.3,9.2,20.5,20.5,20.5h20.6Z"/>
    <path class="st3" d="M1162.9,630.9v-92.8c0-27.3-23.9-34.4-41.7-34.4s-41.4,7.5-41.7,32.4v94.9h-33.3v-221.3h33.3v73.3c11.6-9.2,29.8-13.6,47.5-13.6,13.5,0,26.8,2.6,36.7,6.7,18.7,7.9,32.4,25.6,32.4,46.9v107.9s-33.3,0-33.3,0Z"/>
    <path class="st3" d="M1255.3,470.3v92.8c0,27.3,23.9,34.4,41.7,34.4s41.4-7.5,41.7-32.4v-94.9h33.3v160.6h-29.1l-4.2-12.6c-11.6,9.2-29.8,13.6-47.5,13.6-13.5,0-26.8-2.6-36.7-6.7-18.7-7.9-32.4-25.6-32.4-46.9v-107.9s33.3,0,33.3,0Z"/>
    <path class="st3" d="M124,470.2l-4.2,11.9c-23.2-15.7-57.4-15.7-81.5-7.1-19.3,6.9-31.3,22.7-35.1,43-5.6,29.5-7.1,84.4,23.6,102.2,29.6,17.2,65.4,14.9,94.6-2.3v48.8H13.6v33.8h141v-230.2h-30.7ZM118.7,574.4c-6,25.6-37.7,26.9-57.5,22.7-30.7-6.4-28.7-47.9-23.5-70.1,6.3-26.8,42.1-26.8,62.5-20.6,9.8,2.9,15,11.4,18.8,20.7,2.5,15.7,3.3,31.7-.4,47.4Z"/>
  </g>
  <g>
    <path class="st2" d="M1432.8,25.1v48.5c29.1-17.3,65-19.5,94.6-2.3,30.7,17.8,29.2,72.8,23.6,102.2-3.9,20.3-15.9,36-35.1,43-24.1,8.6-58.3,8.6-81.5-7.1l-4.2,11.9h-30.7V0h33.3v25.1ZM1435.5,117.1c-3.7,15.6-2.9,31.6-.4,47.4,3.9,9.3,9,17.7,18.8,20.7,20.5,6.1,56.2,6.1,62.5-20.6,5.3-22.1,7.2-63.6-23.5-70.1-19.8-4.2-51.5-2.9-57.5,22.7Z"/>
    <path class="st2" d="M927.7,221.3v-92.8c0-27.3-23.9-34.4-41.7-34.4s-41.4,7.5-41.7,32.4v94.9h-33.3V0h33.3v73.3c11.6-9.2,29.8-13.6,47.5-13.6,13.5,0,26.8,2.6,36.7,6.7,18.7,7.9,32.4,25.6,32.4,46.9v107.9s-33.3,0-33.3,0Z"/>
    <polygon class="st2" points="216.9 94.4 216.9 221.3 183.7 221.3 183.7 60.6 286.7 60.6 286.7 94.4 216.9 94.4"/>
    <path class="st2" d="M375.5,59.7h-22c-35.9,0-65,29.1-65,65v32.5c0,35.9,29.1,65,65,65h22c35.9,0,65-29.1,65-65v-32.5c0-35.9-29.1-65-65-65ZM408.1,150.2c0,20.6-16.7,37.3-37.3,37.3h-12.7c-20.6,0-37.3-16.7-37.3-37.3v-18.6c0-20.6,16.7-37.3,37.3-37.3h12.7c20.6,0,37.3,16.7,37.3,37.3v18.6Z"/>
    <polygon class="st2" points="643.1 60.6 615.8 183.8 593.8 60.6 563 60.6 532.2 60.6 510.2 183.8 482.9 60.6 446.7 60.6 482.2 221.3 540.7 221.3 563 95.6 585.3 221.3 643.8 221.3 679.3 60.6 643.1 60.6"/>
    <path class="st2" d="M789.5,187.5v33.8h-32.3c-23.3,0-42.1-18.8-42.1-42.1v-84.8h-23.1v-33.8h23.1V16.8h33.3v43.8h41.1v33.8h-41.1v72.6c0,11.3,9.2,20.5,20.5,20.5h20.6Z"/>
    <path class="st2" d="M1162.9,221.3v-92.8c0-27.3-23.9-34.4-41.7-34.4s-41.4,7.5-41.7,32.4v94.9h-33.3V0h33.3v73.3c11.6-9.2,29.8-13.6,47.5-13.6,13.5,0,26.8,2.6,36.7,6.7,18.7,7.9,32.4,25.6,32.4,46.9v107.9s-33.3,0-33.3,0Z"/>
    <path class="st2" d="M1255.3,60.7v92.8c0,27.3,23.9,34.4,41.7,34.4s41.4-7.5,41.7-32.4V60.7h33.3v160.6h-29.1l-4.2-12.6c-11.6,9.2-29.8,13.6-47.5,13.6-13.5,0-26.8-2.6-36.7-6.7-18.7-7.9-32.4-25.6-32.4-46.9V60.7s33.3,0,33.3,0Z"/>
    <path class="st2" d="M124,60.6l-4.2,11.9c-23.2-15.7-57.4-15.7-81.5-7.1-19.3,6.9-31.3,22.7-35.1,43-5.6,29.5-7.1,84.4,23.6,102.2,29.6,17.2,65.4,14.9,94.6-2.3v48.8H13.6v33.8h141V60.6h-30.7ZM118.7,164.8c-6,25.6-37.7,26.9-57.5,22.7-30.7-6.4-28.7-47.9-23.5-70.1,6.3-26.8,42.1-26.8,62.5-20.6,9.8,2.9,15,11.4,18.8,20.7,2.5,15.7,3.3,31.7-.4,47.4Z"/>
  </g>
  <g>
    <path class="st4" d="M1432.8-337.4v48.5c29.1-17.3,65-19.5,94.6-2.3,30.7,17.8,29.2,72.8,23.6,102.2-3.9,20.3-15.9,36-35.1,43-24.1,8.6-58.3,8.6-81.5-7.1l-4.2,11.9h-30.7v-221.3h33.3v25.1ZM1435.5-245.4c-3.7,15.6-2.9,31.6-.4,47.4,3.9,9.3,9,17.7,18.8,20.7,20.5,6.1,56.2,6.1,62.5-20.6,5.3-22.1,7.2-63.6-23.5-70.1-19.8-4.2-51.5-2.9-57.5,22.7Z"/>
    <path class="st4" d="M927.7-141.3v-92.8c0-27.3-23.9-34.4-41.7-34.4s-41.4,7.5-41.7,32.4v94.9h-33.3v-221.3h33.3v73.3c11.6-9.2,29.8-13.6,47.5-13.6,13.5,0,26.8,2.6,36.7,6.7,18.7,7.9,32.4,25.6,32.4,46.9v107.9s-33.3,0-33.3,0Z"/>
    <polygon class="st4" points="216.9 -268.1 216.9 -141.3 183.7 -141.3 183.7 -301.9 286.7 -301.9 286.7 -268.1 216.9 -268.1"/>
    <path class="st4" d="M375.5-302.9h-22c-35.9,0-65,29.1-65,65v32.5c0,35.9,29.1,65,65,65h22c35.9,0,65-29.1,65-65v-32.5c0-35.9-29.1-65-65-65ZM408.1-212.3c0,20.6-16.7,37.3-37.3,37.3h-12.7c-20.6,0-37.3-16.7-37.3-37.3v-18.6c0-20.6,16.7-37.3,37.3-37.3h12.7c20.6,0,37.3,16.7,37.3,37.3v18.6Z"/>
    <polygon class="st4" points="643.1 -301.9 615.8 -178.8 593.8 -301.9 563 -301.9 532.2 -301.9 510.2 -178.8 482.9 -301.9 446.7 -301.9 482.2 -141.3 540.7 -141.3 563 -267 585.3 -141.3 643.8 -141.3 679.3 -301.9 643.1 -301.9"/>
    <path class="st4" d="M789.5-175.1v33.8h-32.3c-23.3,0-42.1-18.8-42.1-42.1v-84.8h-23.1v-33.8h23.1v-43.8h33.3v43.8h41.1v33.8h-41.1v72.6c0,11.3,9.2,20.5,20.5,20.5h20.6Z"/>
    <path class="st4" d="M1162.9-141.3v-92.8c0-27.3-23.9-34.4-41.7-34.4s-41.4,7.5-41.7,32.4v94.9h-33.3v-221.3h33.3v73.3c11.6-9.2,29.8-13.6,47.5-13.6,13.5,0,26.8,2.6,36.7,6.7,18.7,7.9,32.4,25.6,32.4,46.9v107.9s-33.3,0-33.3,0Z"/>
    <path class="st4" d="M1255.3-301.9v92.8c0,27.3,23.9,34.4,41.7,34.4s41.4-7.5,41.7-32.4v-94.9h33.3v160.6h-29.1l-4.2-12.6c-11.6,9.2-29.8,13.6-47.5,13.6-13.5,0-26.8-2.6-36.7-6.7-18.7-7.9-32.4-25.6-32.4-46.9v-107.9s33.3,0,33.3,0Z"/>
    <path class="st4" d="M124-301.9l-4.2,11.9c-23.2-15.7-57.4-15.7-81.5-7.1-19.3,6.9-31.3,22.7-35.1,43-5.6,29.5-7.1,84.4,23.6,102.2,29.6,17.2,65.4,14.9,94.6-2.3v48.8H13.6v33.8h141v-230.2h-30.7ZM118.7-197.8c-6,25.6-37.7,26.9-57.5,22.7-30.7-6.4-28.7-47.9-23.5-70.1,6.3-26.8,42.1-26.8,62.5-20.6,9.8,2.9,15,11.4,18.8,20.7,2.5,15.7,3.3,31.7-.4,47.4Z"/>
  </g>
</svg>