<?xml version="1.0" encoding="UTF-8"?>
<svg id="Layer_1" xmlns="http://www.w3.org/2000/svg" xmlns:xlink="http://www.w3.org/1999/xlink" version="1.1" viewBox="0 0 720 638.1">
  <!-- Generator: Adobe Illustrator 30.2.1, SVG Export Plug-In . SVG Version: 2.1.1 Build 1)  -->
  <defs>
    <style>
      .st0 {
        fill: url(#linear-gradient1);
      }

      .st1 {
        fill: url(#linear-gradient);
      }

      .st2 {
        fill: #694de2;
      }

      .st3 {
        fill: #ededed;
      }

      .st4 {
        fill: #161616;
      }
    </style>
    <linearGradient id="linear-gradient" x1="-3143.6" y1="1066.7" x2="-3143.6" y2="-16" gradientUnits="userSpaceOnUse">
      <stop offset="0" stop-color="#694de2"/>
      <stop offset="1" stop-color="#161616"/>
    </linearGradient>
    <linearGradient id="linear-gradient1" x1="-4283.6" y1="1066.7" x2="-4283.6" y2="-16" xlink:href="#linear-gradient"/>
  </defs>
  <rect class="st4" x="-2546.1" y="-1191.4" width="1085" height="1085"/>
  <rect class="st2" x="-266.1" y="-1191.4" width="1085" height="1085"/>
  <g>
    <g>
      <path class="st3" d="M357.4-781.1c0,7.6-6.2,13.8-13.8,13.8h-179.1c-3.7,0-7.2,1.5-9.8,4l-17.7,17.7c-2.6,2.6-4,6.1-4,9.8v171.1c0,3.7,1.5,7.2,4,9.8l21.1,21.1c2.6,2.6,6.1,4,9.8,4h175.6c7.6,0,13.8,6.2,13.8,13.8v35.2c0,7.6-6.2,13.8-13.8,13.8h-196.7c-7.6,0-13.8-6.2-13.8-13.8v-20.3c0-3.7-1.5-7.2-4-9.8l-15-15c-2.6-2.6-6.1-4-9.8-4h-19.5c-7.6,0-13.8-6.2-13.8-13.8v-209.9c0-7.6,6.2-13.8,13.8-13.8h16c3.7,0,7.2-1.5,9.8-4l18.5-18.5c2.6-2.6,4-6.1,4-9.8v-17.6c0-7.6,6.2-13.8,13.8-13.8h196.7c7.6,0,13.8,6.2,13.8,13.8v36Z"/>
      <rect class="st3" x="204.4" y="-681.1" width="153.1" height="64.4" rx="-276.2" ry="-276.2" transform="translate(541.1 8.6) rotate(-45)"/>
    </g>
    <rect class="st3" x="418.1" y="-767.1" width="63.6" height="237.4" rx="-146.2" ry="-146.2"/>
  </g>
  <rect class="st2" x="-1406.1" y="-1191.4" width="1085" height="1085"/>
  <g>
    <g>
      <path class="st4" d="M-782.6-781.1c0,7.6-6.2,13.8-13.8,13.8h-179.1c-3.7,0-7.2,1.5-9.8,4l-17.7,17.7c-2.6,2.6-4,6.1-4,9.8v171.1c0,3.7,1.5,7.2,4,9.8l21.1,21.1c2.6,2.6,6.1,4,9.8,4h175.6c7.6,0,13.8,6.2,13.8,13.8v35.2c0,7.6-6.2,13.8-13.8,13.8h-196.7c-7.6,0-13.8-6.2-13.8-13.8v-20.3c0-3.7-1.5-7.2-4-9.8l-15-15c-2.6-2.6-6.1-4-9.8-4h-19.5c-7.6,0-13.8-6.2-13.8-13.8v-209.9c0-7.6,6.2-13.8,13.8-13.8h16c3.7,0,7.2-1.5,9.8-4l18.5-18.5c2.6-2.6,4-6.1,4-9.8v-17.6c0-7.6,6.2-13.8,13.8-13.8h196.7c7.6,0,13.8,6.2,13.8,13.8v36Z"/>
      <rect class="st4" x="-935.6" y="-681.1" width="153.1" height="64.4" rx="-314.8" ry="-314.8" transform="translate(207.2 -797.5) rotate(-45)"/>
    </g>
    <rect class="st4" x="-721.9" y="-767.1" width="63.6" height="237.4" rx="-297.3" ry="-297.3"/>
  </g>
  <rect class="st1" x="-3686.1" y="-51.4" width="1085" height="1085"/>
  <g>
    <path class="st3" d="M-2817,444.2v18.9c11.4-6.7,25.3-7.6,36.8-.9,12,6.9,11.4,28.3,9.2,39.8-1.5,7.9-6.2,14-13.7,16.7-9.4,3.4-22.7,3.4-31.7-2.8l-1.6,4.6h-11.9v-86.2h13v9.8ZM-2815.9,480c-1.4,6.1-1.1,12.3-.1,18.4,1.5,3.6,3.5,6.9,7.3,8,8,2.4,21.9,2.4,24.4-8,2-8.6,2.8-24.8-9.2-27.3-7.7-1.6-20.1-1.1-22.4,8.8Z"/>
    <path class="st3" d="M-3013.7,520.6v-36.2c0-10.6-9.3-13.4-16.2-13.4s-16.1,2.9-16.2,12.6v37h-13v-86.2h13v28.6c4.5-3.6,11.6-5.3,18.5-5.3,5.3,0,10.4,1,14.3,2.6,7.3,3.1,12.6,10,12.6,18.3v42s-13,0-13,0Z"/>
    <polygon class="st3" points="-3290.5 471.2 -3290.5 520.6 -3303.5 520.6 -3303.5 458 -3263.4 458 -3263.4 471.2 -3290.5 471.2"/>
    <path class="st3" d="M-3228.8,457.7h-8.6c-14,0-25.3,11.3-25.3,25.3v12.7c0,14,11.3,25.3,25.3,25.3h8.6c14,0,25.3-11.3,25.3-25.3v-12.7c0-14-11.3-25.3-25.3-25.3ZM-3216.1,492.9c0,8-6.5,14.5-14.5,14.5h-4.9c-8,0-14.5-6.5-14.5-14.5v-7.2c0-8,6.5-14.5,14.5-14.5h4.9c8,0,14.5,6.5,14.5,14.5v7.2Z"/>
    <polygon class="st3" points="-3124.6 458 -3135.2 506 -3143.7 458 -3155.7 458 -3167.7 458 -3176.3 506 -3186.9 458 -3201.1 458 -3187.2 520.6 -3164.4 520.6 -3155.7 471.7 -3147.1 520.6 -3124.3 520.6 -3110.4 458 -3124.6 458"/>
    <path class="st3" d="M-3067.5,507.4v13.2h-12.6c-9.1,0-16.4-7.3-16.4-16.4v-33h-9v-13.2h9v-17.1h13v17.1h16v13.2h-16v28.3c0,4.4,3.6,8,8,8h8Z"/>
    <path class="st3" d="M-2922.1,520.6v-36.2c0-10.6-9.3-13.4-16.2-13.4s-16.1,2.9-16.2,12.6v37h-13v-86.2h13v28.6c4.5-3.6,11.6-5.3,18.5-5.3,5.3,0,10.4,1,14.3,2.6,7.3,3.1,12.6,10,12.6,18.3v42s-13,0-13,0Z"/>
    <path class="st3" d="M-2886.1,458.1v36.2c0,10.6,9.3,13.4,16.2,13.4s16.1-2.9,16.2-12.6v-37h13v62.6h-11.3l-1.6-4.9c-4.5,3.6-11.6,5.3-18.5,5.3-5.3,0-10.4-1-14.3-2.6-7.3-3.1-12.6-10-12.6-18.3v-42s13,0,13,0Z"/>
    <path class="st3" d="M-3326.7,458l-1.6,4.6c-9-6.1-22.4-6.1-31.7-2.8-7.5,2.7-12.2,8.8-13.7,16.7-2.2,11.5-2.8,32.9,9.2,39.8,11.5,6.7,25.5,5.8,36.8-.9v18.9h0c0,.1-42,.1-42,.1v13.2h54.9v-89.7h-11.9ZM-3328.8,498.6c-2.3,10-14.7,10.5-22.4,8.8-11.9-2.5-11.2-18.7-9.2-27.3,2.5-10.4,16.4-10.4,24.4-8,3.8,1.1,5.8,4.4,7.3,8,1,6.1,1.3,12.4-.1,18.4Z"/>
    <g>
      <g>
        <path class="st2" d="M-3441.7,454.3c0,2-1.6,3.7-3.7,3.7h-47.5c-1,0-1.9.4-2.6,1.1l-4.7,4.7c-.7.7-1.1,1.6-1.1,2.6v45.4c0,1,.4,1.9,1.1,2.6l5.6,5.6c.7.7,1.6,1.1,2.6,1.1h46.5c2,0,3.7,1.6,3.7,3.7v9.3c0,2-1.6,3.7-3.7,3.7h-52.1c-2,0-3.7-1.6-3.7-3.7v-5.4c0-1-.4-1.9-1.1-2.6l-4-4c-.7-.7-1.6-1.1-2.6-1.1h-5.2c-2,0-3.7-1.6-3.7-3.7v-55.6c0-2,1.6-3.7,3.7-3.7h4.2c1,0,1.9-.4,2.6-1.1l4.9-4.9c.7-.7,1.1-1.6,1.1-2.6v-4.7c0-2,1.6-3.7,3.7-3.7h52.1c2,0,3.7,1.6,3.7,3.7v9.5Z"/>
        <rect class="st2" x="-3482.2" y="480.8" width="40.6" height="17.1" rx="-1700.5" ry="-1700.5" transform="translate(-1360 -2304.6) rotate(-45)"/>
      </g>
      <rect class="st2" x="-3425.6" y="458" width="16.9" height="62.9" rx="-1695.9" ry="-1695.9"/>
    </g>
  </g>
  <rect class="st0" x="-4826.1" y="-51.4" width="1085" height="1085"/>
  <g>
    <path class="st3" d="M-3957,444.2v18.9c11.4-6.7,25.3-7.6,36.8-.9,12,6.9,11.4,28.3,9.2,39.8-1.5,7.9-6.2,14-13.7,16.7-9.4,3.4-22.7,3.4-31.7-2.8l-1.6,4.6h-11.9v-86.2h13v9.8ZM-3955.9,480c-1.4,6.1-1.1,12.3-.1,18.4,1.5,3.6,3.5,6.9,7.3,8,8,2.4,21.9,2.4,24.4-8,2-8.6,2.8-24.8-9.2-27.3-7.7-1.6-20.1-1.1-22.4,8.8Z"/>
    <path class="st3" d="M-4153.7,520.6v-36.2c0-10.6-9.3-13.4-16.2-13.4s-16.1,2.9-16.2,12.6v37h-13v-86.2h13v28.6c4.5-3.6,11.6-5.3,18.5-5.3,5.3,0,10.4,1,14.3,2.6,7.3,3.1,12.6,10,12.6,18.3v42s-13,0-13,0Z"/>
    <polygon class="st3" points="-4430.5 471.2 -4430.5 520.6 -4443.5 520.6 -4443.5 458 -4403.4 458 -4403.4 471.2 -4430.5 471.2"/>
    <path class="st3" d="M-4368.8,457.7h-8.6c-14,0-25.3,11.3-25.3,25.3v12.7c0,14,11.3,25.3,25.3,25.3h8.6c14,0,25.3-11.3,25.3-25.3v-12.7c0-14-11.3-25.3-25.3-25.3ZM-4356.1,492.9c0,8-6.5,14.5-14.5,14.5h-4.9c-8,0-14.5-6.5-14.5-14.5v-7.2c0-8,6.5-14.5,14.5-14.5h4.9c8,0,14.5,6.5,14.5,14.5v7.2Z"/>
    <polygon class="st3" points="-4264.6 458 -4275.2 506 -4283.7 458 -4295.7 458 -4307.7 458 -4316.3 506 -4326.9 458 -4341.1 458 -4327.2 520.6 -4304.4 520.6 -4295.7 471.7 -4287.1 520.6 -4264.3 520.6 -4250.4 458 -4264.6 458"/>
    <path class="st3" d="M-4207.5,507.4v13.2h-12.6c-9.1,0-16.4-7.3-16.4-16.4v-33h-9v-13.2h9v-17.1h13v17.1h16v13.2h-16v28.3c0,4.4,3.6,8,8,8h8Z"/>
    <path class="st3" d="M-4062.1,520.6v-36.2c0-10.6-9.3-13.4-16.2-13.4s-16.1,2.9-16.2,12.6v37h-13v-86.2h13v28.6c4.5-3.6,11.6-5.3,18.5-5.3,5.3,0,10.4,1,14.3,2.6,7.3,3.1,12.6,10,12.6,18.3v42s-13,0-13,0Z"/>
    <path class="st3" d="M-4026.1,458.1v36.2c0,10.6,9.3,13.4,16.2,13.4s16.1-2.9,16.2-12.6v-37h13v62.6h-11.3l-1.6-4.9c-4.5,3.6-11.6,5.3-18.5,5.3-5.3,0-10.4-1-14.3-2.6-7.3-3.1-12.6-10-12.6-18.3v-42s13,0,13,0Z"/>
    <path class="st3" d="M-4466.7,458l-1.6,4.6c-9-6.1-22.4-6.1-31.7-2.8-7.5,2.7-12.2,8.8-13.7,16.7-2.2,11.5-2.8,32.9,9.2,39.8,11.5,6.7,25.5,5.8,36.8-.9v18.9h0c0,.1-42,.1-42,.1v13.2h54.9v-89.7h-11.9ZM-4468.8,498.6c-2.3,10-14.7,10.5-22.4,8.8-11.9-2.5-11.2-18.7-9.2-27.3,2.5-10.4,16.4-10.4,24.4-8,3.8,1.1,5.8,4.4,7.3,8,1,6.1,1.3,12.4-.1,18.4Z"/>
    <g>
      <g>
        <path class="st3" d="M-4581.7,454.3c0,2-1.6,3.7-3.7,3.7h-47.5c-1,0-1.9.4-2.6,1.1l-4.7,4.7c-.7.7-1.1,1.6-1.1,2.6v45.4c0,1,.4,1.9,1.1,2.6l5.6,5.6c.7.7,1.6,1.1,2.6,1.1h46.5c2,0,3.7,1.6,3.7,3.7v9.3c0,2-1.6,3.7-3.7,3.7h-52.1c-2,0-3.7-1.6-3.7-3.7v-5.4c0-1-.4-1.9-1.1-2.6l-4-4c-.7-.7-1.6-1.1-2.6-1.1h-5.2c-2,0-3.7-1.6-3.7-3.7v-55.6c0-2,1.6-3.7,3.7-3.7h4.2c1,0,1.9-.4,2.6-1.1l4.9-4.9c.7-.7,1.1-1.6,1.1-2.6v-4.7c0-2,1.6-3.7,3.7-3.7h52.1c2,0,3.7,1.6,3.7,3.7v9.5Z"/>
        <rect class="st3" x="-4622.2" y="480.8" width="40.6" height="17.1" rx="-2270.5" ry="-2270.5" transform="translate(-1693.9 -3110.7) rotate(-45)"/>
      </g>
      <rect class="st3" x="-4565.6" y="458" width="16.9" height="62.9" rx="-2265.9" ry="-2265.9"/>
    </g>
  </g>
  <g>
    <path class="st4" d="M-678.6,53.3v48.5c29.1-17.3,65-19.5,94.6-2.3,30.7,17.8,29.2,72.8,23.6,102.2-3.9,20.3-15.9,36-35.1,43-24.1,8.6-58.3,8.6-81.5-7.1l-4.2,11.9h-30.7V28.2h33.3v25.1ZM-675.9,145.3c-3.7,15.6-2.9,31.6-.4,47.4,3.9,9.3,9,17.7,18.8,20.7,20.5,6.1,56.2,6.1,62.5-20.6,5.3-22.1,7.2-63.6-23.5-70.1-19.8-4.2-51.5-2.9-57.5,22.7Z"/>
    <path class="st4" d="M-1183.6,249.4v-92.8c0-27.3-23.9-34.4-41.7-34.4s-41.4,7.5-41.7,32.4v94.9h-33.3V28.2h33.3v73.3c11.6-9.2,29.8-13.6,47.5-13.6,13.5,0,26.8,2.6,36.7,6.7,18.7,7.9,32.4,25.6,32.4,46.9v107.9s-33.3,0-33.3,0Z"/>
    <polygon class="st4" points="-1894.4 122.6 -1894.4 249.4 -1927.7 249.4 -1927.7 88.8 -1824.7 88.8 -1824.7 122.6 -1894.4 122.6"/>
    <path class="st4" d="M-1735.9,87.8h-22c-35.9,0-65,29.1-65,65v32.5c0,35.9,29.1,65,65,65h22c35.9,0,65-29.1,65-65v-32.5c0-35.9-29.1-65-65-65ZM-1703.3,178.4c0,20.6-16.7,37.3-37.3,37.3h-12.7c-20.6,0-37.3-16.7-37.3-37.3v-18.6c0-20.6,16.7-37.3,37.3-37.3h12.7c20.6,0,37.3,16.7,37.3,37.3v18.6Z"/>
    <polygon class="st4" points="-1468.3 88.8 -1495.6 211.9 -1517.6 88.8 -1548.4 88.8 -1579.2 88.8 -1601.2 211.9 -1628.5 88.8 -1664.7 88.8 -1629.2 249.4 -1570.7 249.4 -1548.4 123.7 -1526.1 249.4 -1467.6 249.4 -1432.1 88.8 -1468.3 88.8"/>
    <path class="st4" d="M-1321.9,215.6v33.8h-32.3c-23.3,0-42.1-18.8-42.1-42.1v-84.8h-23.1v-33.8h23.1v-43.8h33.3v43.8h41.1v33.8h-41.1v72.6c0,11.3,9.2,20.5,20.5,20.5h20.6Z"/>
    <path class="st4" d="M-948.4,249.4v-92.8c0-27.3-23.9-34.4-41.7-34.4s-41.4,7.5-41.7,32.4v94.9h-33.3V28.2h33.3v73.3c11.6-9.2,29.8-13.6,47.5-13.6,13.5,0,26.8,2.6,36.7,6.7,18.7,7.9,32.4,25.6,32.4,46.9v107.9s-33.3,0-33.3,0Z"/>
    <path class="st4" d="M-856.1,88.8v92.8c0,27.3,23.9,34.4,41.7,34.4s41.4-7.5,41.7-32.4v-94.9h33.3v160.6h-29.1l-4.2-12.6c-11.6,9.2-29.8,13.6-47.5,13.6-13.5,0-26.8-2.6-36.7-6.7-18.7-7.9-32.4-25.6-32.4-46.9v-107.9s33.3,0,33.3,0Z"/>
    <path class="st4" d="M-1987.4,88.8l-4.2,11.9c-23.2-15.7-57.4-15.7-81.5-7.1-19.3,6.9-31.3,22.7-35.1,43-5.6,29.5-7.1,84.4,23.6,102.2,29.6,17.2,65.4,14.9,94.6-2.3v48.8h-107.8v33.8h141V88.8h-30.7ZM-1992.7,192.9c-6,25.6-37.7,26.9-57.5,22.7-30.7-6.4-28.7-47.9-23.5-70.1,6.3-26.8,42.1-26.8,62.5-20.6,9.8,2.9,15,11.4,18.8,20.7,2.5,15.7,3.3,31.7-.4,47.4Z"/>
    <g>
      <g>
        <path class="st4" d="M-2282.4,79.2c0,5.2-4.2,9.4-9.4,9.4h-121.8c-2.5,0-4.9,1-6.6,2.7l-12,12c-1.8,1.8-2.7,4.1-2.7,6.6v116.4c0,2.5,1,4.9,2.7,6.6l14.4,14.4c1.8,1.8,4.1,2.7,6.6,2.7h119.5c5.2,0,9.4,4.2,9.4,9.4v24c0,5.2-4.2,9.4-9.4,9.4h-133.9c-5.2,0-9.4-4.2-9.4-9.4v-13.8c0-2.5-1-4.9-2.7-6.6l-10.2-10.2c-1.8-1.8-4.1-2.7-6.6-2.7h-13.3c-5.2,0-9.4-4.2-9.4-9.4V97.9c0-5.2,4.2-9.4,9.4-9.4h10.9c2.5,0,4.9-1,6.6-2.7l12.6-12.6c1.8-1.8,2.7-4.1,2.7-6.6v-11.9c0-5.2,4.2-9.4,9.4-9.4h133.9c5.2,0,9.4,4.2,9.4,9.4v24.5Z"/>
        <rect class="st4" x="-2386.5" y="147.2" width="104.1" height="43.8" rx="-1089.1" ry="-1089.1" transform="translate(-803.3 -1601.2) rotate(-45)"/>
      </g>
      <rect class="st4" x="-2241.1" y="88.7" width="43.3" height="161.5" rx="-1077.3" ry="-1077.3"/>
    </g>
  </g>
  <g>
    <path class="st3" d="M-678.6,368.8v48.5c29.1-17.3,65-19.5,94.6-2.3,30.7,17.8,29.2,72.8,23.6,102.2-3.9,20.3-15.9,36-35.1,43-24.1,8.6-58.3,8.6-81.5-7.1l-4.2,11.9h-30.7v-221.3h33.3v25.1ZM-675.9,460.8c-3.7,15.6-2.9,31.6-.4,47.4,3.9,9.3,9,17.7,18.8,20.7,20.5,6.1,56.2,6.1,62.5-20.6,5.3-22.1,7.2-63.6-23.5-70.1-19.8-4.2-51.5-2.9-57.5,22.7Z"/>
    <path class="st3" d="M-1183.6,565v-92.8c0-27.3-23.9-34.4-41.7-34.4s-41.4,7.5-41.7,32.4v94.9h-33.3v-221.3h33.3v73.3c11.6-9.2,29.8-13.6,47.5-13.6,13.5,0,26.8,2.6,36.7,6.7,18.7,7.9,32.4,25.6,32.4,46.9v107.9s-33.3,0-33.3,0Z"/>
    <polygon class="st3" points="-1894.4 438.1 -1894.4 565 -1927.7 565 -1927.7 404.3 -1824.7 404.3 -1824.7 438.1 -1894.4 438.1"/>
    <path class="st3" d="M-1735.9,403.4h-22c-35.9,0-65,29.1-65,65v32.5c0,35.9,29.1,65,65,65h22c35.9,0,65-29.1,65-65v-32.5c0-35.9-29.1-65-65-65ZM-1703.3,493.9c0,20.6-16.7,37.3-37.3,37.3h-12.7c-20.6,0-37.3-16.7-37.3-37.3v-18.6c0-20.6,16.7-37.3,37.3-37.3h12.7c20.6,0,37.3,16.7,37.3,37.3v18.6Z"/>
    <polygon class="st3" points="-1468.3 404.3 -1495.6 527.5 -1517.6 404.3 -1548.4 404.3 -1579.2 404.3 -1601.2 527.5 -1628.5 404.3 -1664.7 404.3 -1629.2 565 -1570.7 565 -1548.4 439.3 -1526.1 565 -1467.6 565 -1432.1 404.3 -1468.3 404.3"/>
    <path class="st3" d="M-1321.9,531.2v33.8h-32.3c-23.3,0-42.1-18.8-42.1-42.1v-84.8h-23.1v-33.8h23.1v-43.8h33.3v43.8h41.1v33.8h-41.1v72.6c0,11.3,9.2,20.5,20.5,20.5h20.6Z"/>
    <path class="st3" d="M-948.4,565v-92.8c0-27.3-23.9-34.4-41.7-34.4s-41.4,7.5-41.7,32.4v94.9h-33.3v-221.3h33.3v73.3c11.6-9.2,29.8-13.6,47.5-13.6,13.5,0,26.8,2.6,36.7,6.7,18.7,7.9,32.4,25.6,32.4,46.9v107.9s-33.3,0-33.3,0Z"/>
    <path class="st3" d="M-856.1,404.4v92.8c0,27.3,23.9,34.4,41.7,34.4s41.4-7.5,41.7-32.4v-94.9h33.3v160.6h-29.1l-4.2-12.6c-11.6,9.2-29.8,13.6-47.5,13.6-13.5,0-26.8-2.6-36.7-6.7-18.7-7.9-32.4-25.6-32.4-46.9v-107.9s33.3,0,33.3,0Z"/>
    <path class="st3" d="M-1987.4,404.4l-4.2,11.9c-23.2-15.7-57.4-15.7-81.5-7.1-19.3,6.9-31.3,22.7-35.1,43-5.6,29.5-7.1,84.4,23.6,102.2,29.6,17.2,65.4,14.9,94.6-2.3v48.8h-107.8v33.8h141v-230.2h-30.7ZM-1992.7,508.5c-6,25.6-37.7,26.9-57.5,22.7-30.7-6.4-28.7-47.9-23.5-70.1,6.3-26.8,42.1-26.8,62.5-20.6,9.8,2.9,15,11.4,18.8,20.7,2.5,15.7,3.3,31.7-.4,47.4Z"/>
    <g>
      <g>
        <path class="st3" d="M-2282.4,394.7c0,5.2-4.2,9.4-9.4,9.4h-121.8c-2.5,0-4.9,1-6.6,2.7l-12,12c-1.8,1.8-2.7,4.1-2.7,6.6v116.4c0,2.5,1,4.9,2.7,6.6l14.4,14.4c1.8,1.8,4.1,2.7,6.6,2.7h119.5c5.2,0,9.4,4.2,9.4,9.4v24c0,5.2-4.2,9.4-9.4,9.4h-133.9c-5.2,0-9.4-4.2-9.4-9.4v-13.8c0-2.5-1-4.9-2.7-6.6l-10.2-10.2c-1.8-1.8-4.1-2.7-6.6-2.7h-13.3c-5.2,0-9.4-4.2-9.4-9.4v-142.8c0-5.2,4.2-9.4,9.4-9.4h10.9c2.5,0,4.9-1,6.6-2.7l12.6-12.6c1.8-1.8,2.7-4.1,2.7-6.6v-11.9c0-5.2,4.2-9.4,9.4-9.4h133.9c5.2,0,9.4,4.2,9.4,9.4v24.5Z"/>
        <rect class="st3" x="-2386.5" y="462.8" width="104.1" height="43.8" rx="-1089.1" ry="-1089.1" transform="translate(-1026.4 -1508.8) rotate(-45)"/>
      </g>
      <rect class="st3" x="-2241.1" y="404.2" width="43.3" height="161.5" rx="-1077.3" ry="-1077.3"/>
    </g>
  </g>
  <g>
    <path class="st2" d="M-678.6,684.4v48.5c29.1-17.3,65-19.5,94.6-2.3,30.7,17.8,29.2,72.8,23.6,102.2-3.9,20.3-15.9,36-35.1,43-24.1,8.6-58.3,8.6-81.5-7.1l-4.2,11.9h-30.7v-221.3h33.3v25.1ZM-675.9,776.4c-3.7,15.6-2.9,31.6-.4,47.4,3.9,9.3,9,17.7,18.8,20.7,20.5,6.1,56.2,6.1,62.5-20.6,5.3-22.1,7.2-63.6-23.5-70.1-19.8-4.2-51.5-2.9-57.5,22.7Z"/>
    <path class="st2" d="M-1183.6,880.6v-92.8c0-27.3-23.9-34.4-41.7-34.4s-41.4,7.5-41.7,32.4v94.9h-33.3v-221.3h33.3v73.3c11.6-9.2,29.8-13.6,47.5-13.6,13.5,0,26.8,2.6,36.7,6.7,18.7,7.9,32.4,25.6,32.4,46.9v107.9s-33.3,0-33.3,0Z"/>
    <polygon class="st2" points="-1894.4 753.7 -1894.4 880.6 -1927.7 880.6 -1927.7 719.9 -1824.7 719.9 -1824.7 753.7 -1894.4 753.7"/>
    <path class="st2" d="M-1735.9,719h-22c-35.9,0-65,29.1-65,65v32.5c0,35.9,29.1,65,65,65h22c35.9,0,65-29.1,65-65v-32.5c0-35.9-29.1-65-65-65ZM-1703.3,809.5c0,20.6-16.7,37.3-37.3,37.3h-12.7c-20.6,0-37.3-16.7-37.3-37.3v-18.6c0-20.6,16.7-37.3,37.3-37.3h12.7c20.6,0,37.3,16.7,37.3,37.3v18.6Z"/>
    <polygon class="st2" points="-1468.3 719.9 -1495.6 843.1 -1517.6 719.9 -1548.4 719.9 -1579.2 719.9 -1601.2 843.1 -1628.5 719.9 -1664.7 719.9 -1629.2 880.6 -1570.7 880.6 -1548.4 754.9 -1526.1 880.6 -1467.6 880.6 -1432.1 719.9 -1468.3 719.9"/>
    <path class="st2" d="M-1321.9,846.7v33.8h-32.3c-23.3,0-42.1-18.8-42.1-42.1v-84.8h-23.1v-33.8h23.1v-43.8h33.3v43.8h41.1v33.8h-41.1v72.6c0,11.3,9.2,20.5,20.5,20.5h20.6Z"/>
    <path class="st2" d="M-948.4,880.6v-92.8c0-27.3-23.9-34.4-41.7-34.4s-41.4,7.5-41.7,32.4v94.9h-33.3v-221.3h33.3v73.3c11.6-9.2,29.8-13.6,47.5-13.6,13.5,0,26.8,2.6,36.7,6.7,18.7,7.9,32.4,25.6,32.4,46.9v107.9s-33.3,0-33.3,0Z"/>
    <path class="st2" d="M-856.1,720v92.8c0,27.3,23.9,34.4,41.7,34.4s41.4-7.5,41.7-32.4v-94.9h33.3v160.6h-29.1l-4.2-12.6c-11.6,9.2-29.8,13.6-47.5,13.6-13.5,0-26.8-2.6-36.7-6.7-18.7-7.9-32.4-25.6-32.4-46.9v-107.9s33.3,0,33.3,0Z"/>
    <path class="st2" d="M-1987.4,719.9l-4.2,11.9c-23.2-15.7-57.4-15.7-81.5-7.1-19.3,6.9-31.3,22.7-35.1,43-5.6,29.5-7.1,84.4,23.6,102.2,29.6,17.2,65.4,14.9,94.6-2.3v48.8h-107.8v33.8h141v-230.2h-30.7ZM-1992.7,824.1c-6,25.6-37.7,26.9-57.5,22.7-30.7-6.4-28.7-47.9-23.5-70.1,6.3-26.8,42.1-26.8,62.5-20.6,9.8,2.9,15,11.4,18.8,20.7,2.5,15.7,3.3,31.7-.4,47.4Z"/>
    <g>
      <g>
        <path class="st2" d="M-2282.4,710.3c0,5.2-4.2,9.4-9.4,9.4h-121.8c-2.5,0-4.9,1-6.6,2.7l-12,12c-1.8,1.8-2.7,4.1-2.7,6.6v116.4c0,2.5,1,4.9,2.7,6.6l14.4,14.4c1.8,1.8,4.1,2.7,6.6,2.7h119.5c5.2,0,9.4,4.2,9.4,9.4v24c0,5.2-4.2,9.4-9.4,9.4h-133.9c-5.2,0-9.4-4.2-9.4-9.4v-13.8c0-2.5-1-4.9-2.7-6.6l-10.2-10.2c-1.8-1.8-4.1-2.7-6.6-2.7h-13.3c-5.2,0-9.4-4.2-9.4-9.4v-142.8c0-5.2,4.2-9.4,9.4-9.4h10.9c2.5,0,4.9-1,6.6-2.7l12.6-12.6c1.8-1.8,2.7-4.1,2.7-6.6v-11.9c0-5.2,4.2-9.4,9.4-9.4h133.9c5.2,0,9.4,4.2,9.4,9.4v24.5Z"/>
        <rect class="st2" x="-2386.5" y="778.3" width="104.1" height="43.8" rx="-1089.1" ry="-1089.1" transform="translate(-1249.6 -1416.3) rotate(-45)"/>
      </g>
      <rect class="st2" x="-2241.1" y="719.8" width="43.3" height="161.5" rx="-1077.3" ry="-1077.3"/>
    </g>
  </g>
  <g>
    <path class="st4" d="M-678.6,1000v48.5c29.1-17.3,65-19.5,94.6-2.3,30.7,17.8,29.2,72.8,23.6,102.2-3.9,20.3-15.9,36-35.1,43-24.1,8.6-58.3,8.6-81.5-7.1l-4.2,11.9h-30.7v-221.3h33.3v25.1ZM-675.9,1092c-3.7,15.6-2.9,31.6-.4,47.4,3.9,9.3,9,17.7,18.8,20.7,20.5,6.1,56.2,6.1,62.5-20.6,5.3-22.1,7.2-63.6-23.5-70.1-19.8-4.2-51.5-2.9-57.5,22.7Z"/>
    <path class="st4" d="M-1183.6,1196.1v-92.8c0-27.3-23.9-34.4-41.7-34.4s-41.4,7.5-41.7,32.4v94.9h-33.3v-221.3h33.3v73.3c11.6-9.2,29.8-13.6,47.5-13.6,13.5,0,26.8,2.6,36.7,6.7,18.7,7.9,32.4,25.6,32.4,46.9v107.9s-33.3,0-33.3,0Z"/>
    <polygon class="st4" points="-1894.4 1069.2 -1894.4 1196.1 -1927.7 1196.1 -1927.7 1035.4 -1824.7 1035.4 -1824.7 1069.2 -1894.4 1069.2"/>
    <path class="st4" d="M-1735.9,1034.5h-22c-35.9,0-65,29.1-65,65v32.5c0,35.9,29.1,65,65,65h22c35.9,0,65-29.1,65-65v-32.5c0-35.9-29.1-65-65-65ZM-1703.3,1125.1c0,20.6-16.7,37.3-37.3,37.3h-12.7c-20.6,0-37.3-16.7-37.3-37.3v-18.6c0-20.6,16.7-37.3,37.3-37.3h12.7c20.6,0,37.3,16.7,37.3,37.3v18.6Z"/>
    <polygon class="st4" points="-1468.3 1035.4 -1495.6 1158.6 -1517.6 1035.4 -1548.4 1035.4 -1579.2 1035.4 -1601.2 1158.6 -1628.5 1035.4 -1664.7 1035.4 -1629.2 1196.1 -1570.7 1196.1 -1548.4 1070.4 -1526.1 1196.1 -1467.6 1196.1 -1432.1 1035.4 -1468.3 1035.4"/>
    <path class="st4" d="M-1321.9,1162.3v33.8h-32.3c-23.3,0-42.1-18.8-42.1-42.1v-84.8h-23.1v-33.8h23.1v-43.8h33.3v43.8h41.1v33.8h-41.1v72.6c0,11.3,9.2,20.5,20.5,20.5h20.6Z"/>
    <path class="st4" d="M-948.4,1196.1v-92.8c0-27.3-23.9-34.4-41.7-34.4s-41.4,7.5-41.7,32.4v94.9h-33.3v-221.3h33.3v73.3c11.6-9.2,29.8-13.6,47.5-13.6,13.5,0,26.8,2.6,36.7,6.7,18.7,7.9,32.4,25.6,32.4,46.9v107.9s-33.3,0-33.3,0Z"/>
    <path class="st4" d="M-856.1,1035.5v92.8c0,27.3,23.9,34.4,41.7,34.4s41.4-7.5,41.7-32.4v-94.9h33.3v160.6h-29.1l-4.2-12.6c-11.6,9.2-29.8,13.6-47.5,13.6-13.5,0-26.8-2.6-36.7-6.7-18.7-7.9-32.4-25.6-32.4-46.9v-107.9s33.3,0,33.3,0Z"/>
    <path class="st4" d="M-1987.4,1035.5l-4.2,11.9c-23.2-15.7-57.4-15.7-81.5-7.1-19.3,6.9-31.3,22.7-35.1,43-5.6,29.5-7.1,84.4,23.6,102.2,29.6,17.2,65.4,14.9,94.6-2.3v48.8h-107.8v33.8h141v-230.2h-30.7ZM-1992.7,1139.6c-6,25.6-37.7,26.9-57.5,22.7-30.7-6.4-28.7-47.9-23.5-70.1,6.3-26.8,42.1-26.8,62.5-20.6,9.8,2.9,15,11.4,18.8,20.7,2.5,15.7,3.3,31.7-.4,47.4Z"/>
    <g>
      <g>
        <path class="st2" d="M-2282.4,1025.9c0,5.2-4.2,9.4-9.4,9.4h-121.8c-2.5,0-4.9,1-6.6,2.7l-12,12c-1.8,1.8-2.7,4.1-2.7,6.6v116.4c0,2.5,1,4.9,2.7,6.6l14.4,14.4c1.8,1.8,4.1,2.7,6.6,2.7h119.5c5.2,0,9.4,4.2,9.4,9.4v24c0,5.2-4.2,9.4-9.4,9.4h-133.9c-5.2,0-9.4-4.2-9.4-9.4v-13.8c0-2.5-1-4.9-2.7-6.6l-10.2-10.2c-1.8-1.8-4.1-2.7-6.6-2.7h-13.3c-5.2,0-9.4-4.2-9.4-9.4v-142.8c0-5.2,4.2-9.4,9.4-9.4h10.9c2.5,0,4.9-1,6.6-2.7l12.6-12.6c1.8-1.8,2.7-4.1,2.7-6.6v-11.9c0-5.2,4.2-9.4,9.4-9.4h133.9c5.2,0,9.4,4.2,9.4,9.4v24.5Z"/>
        <rect class="st2" x="-2386.5" y="1093.9" width="104.1" height="43.8" rx="-1089.1" ry="-1089.1" transform="translate(-1472.7 -1323.9) rotate(-45)"/>
      </g>
      <rect class="st2" x="-2241.1" y="1035.3" width="43.3" height="161.5" rx="-1077.3" ry="-1077.3"/>
    </g>
  </g>
  <g>
    <path class="st3" d="M-678.6,1315.5v48.5c29.1-17.3,65-19.5,94.6-2.3,30.7,17.8,29.2,72.8,23.6,102.2-3.9,20.3-15.9,36-35.1,43-24.1,8.6-58.3,8.6-81.5-7.1l-4.2,11.9h-30.7v-221.3h33.3v25.1ZM-675.9,1407.5c-3.7,15.6-2.9,31.6-.4,47.4,3.9,9.3,9,17.7,18.8,20.7,20.5,6.1,56.2,6.1,62.5-20.6,5.3-22.1,7.2-63.6-23.5-70.1-19.8-4.2-51.5-2.9-57.5,22.7Z"/>
    <path class="st3" d="M-1183.6,1511.7v-92.8c0-27.3-23.9-34.4-41.7-34.4s-41.4,7.5-41.7,32.4v94.9h-33.3v-221.3h33.3v73.3c11.6-9.2,29.8-13.6,47.5-13.6,13.5,0,26.8,2.6,36.7,6.7,18.7,7.9,32.4,25.6,32.4,46.9v107.9s-33.3,0-33.3,0Z"/>
    <polygon class="st3" points="-1894.4 1384.8 -1894.4 1511.7 -1927.7 1511.7 -1927.7 1351 -1824.7 1351 -1824.7 1384.8 -1894.4 1384.8"/>
    <path class="st3" d="M-1735.9,1350.1h-22c-35.9,0-65,29.1-65,65v32.5c0,35.9,29.1,65,65,65h22c35.9,0,65-29.1,65-65v-32.5c0-35.9-29.1-65-65-65ZM-1703.3,1440.6c0,20.6-16.7,37.3-37.3,37.3h-12.7c-20.6,0-37.3-16.7-37.3-37.3v-18.6c0-20.6,16.7-37.3,37.3-37.3h12.7c20.6,0,37.3,16.7,37.3,37.3v18.6Z"/>
    <polygon class="st3" points="-1468.3 1351 -1495.6 1474.2 -1517.6 1351 -1548.4 1351 -1579.2 1351 -1601.2 1474.2 -1628.5 1351 -1664.7 1351 -1629.2 1511.7 -1570.7 1511.7 -1548.4 1386 -1526.1 1511.7 -1467.6 1511.7 -1432.1 1351 -1468.3 1351"/>
    <path class="st3" d="M-1321.9,1477.9v33.8h-32.3c-23.3,0-42.1-18.8-42.1-42.1v-84.8h-23.1v-33.8h23.1v-43.8h33.3v43.8h41.1v33.8h-41.1v72.6c0,11.3,9.2,20.5,20.5,20.5h20.6Z"/>
    <path class="st3" d="M-948.4,1511.7v-92.8c0-27.3-23.9-34.4-41.7-34.4s-41.4,7.5-41.7,32.4v94.9h-33.3v-221.3h33.3v73.3c11.6-9.2,29.8-13.6,47.5-13.6,13.5,0,26.8,2.6,36.7,6.7,18.7,7.9,32.4,25.6,32.4,46.9v107.9s-33.3,0-33.3,0Z"/>
    <path class="st3" d="M-856.1,1351.1v92.8c0,27.3,23.9,34.4,41.7,34.4s41.4-7.5,41.7-32.4v-94.9h33.3v160.6h-29.1l-4.2-12.6c-11.6,9.2-29.8,13.6-47.5,13.6-13.5,0-26.8-2.6-36.7-6.7-18.7-7.9-32.4-25.6-32.4-46.9v-107.9s33.3,0,33.3,0Z"/>
    <path class="st3" d="M-1987.4,1351l-4.2,11.9c-23.2-15.7-57.4-15.7-81.5-7.1-19.3,6.9-31.3,22.7-35.1,43-5.6,29.5-7.1,84.4,23.6,102.2,29.6,17.2,65.4,14.9,94.6-2.3v48.8h-107.8v33.8h141v-230.2h-30.7ZM-1992.7,1455.2c-6,25.6-37.7,26.9-57.5,22.7-30.7-6.4-28.7-47.9-23.5-70.1,6.3-26.8,42.1-26.8,62.5-20.6,9.8,2.9,15,11.4,18.8,20.7,2.5,15.7,3.3,31.7-.4,47.4Z"/>
    <g>
      <g>
        <path class="st2" d="M-2282.4,1341.4c0,5.2-4.2,9.4-9.4,9.4h-121.8c-2.5,0-4.9,1-6.6,2.7l-12,12c-1.8,1.8-2.7,4.1-2.7,6.6v116.4c0,2.5,1,4.9,2.7,6.6l14.4,14.4c1.8,1.8,4.1,2.7,6.6,2.7h119.5c5.2,0,9.4,4.2,9.4,9.4v24c0,5.2-4.2,9.4-9.4,9.4h-133.9c-5.2,0-9.4-4.2-9.4-9.4v-13.8c0-2.5-1-4.9-2.7-6.6l-10.2-10.2c-1.8-1.8-4.1-2.7-6.6-2.7h-13.3c-5.2,0-9.4-4.2-9.4-9.4v-142.8c0-5.2,4.2-9.4,9.4-9.4h10.9c2.5,0,4.9-1,6.6-2.7l12.6-12.6c1.8-1.8,2.7-4.1,2.7-6.6v-11.9c0-5.2,4.2-9.4,9.4-9.4h133.9c5.2,0,9.4,4.2,9.4,9.4v24.5Z"/>
        <rect class="st2" x="-2386.5" y="1409.4" width="104.1" height="43.8" rx="-1089.1" ry="-1089.1" transform="translate(-1695.9 -1231.5) rotate(-45)"/>
      </g>
      <rect class="st2" x="-2241.1" y="1350.9" width="43.3" height="161.5" rx="-1077.3" ry="-1077.3"/>
    </g>
  </g>
  <g>
    <path class="st3" d="M-678.6,1631.1v48.5c29.1-17.3,65-19.5,94.6-2.3,30.7,17.8,29.2,72.8,23.6,102.2-3.9,20.3-15.9,36-35.1,43-24.1,8.6-58.3,8.6-81.5-7.1l-4.2,11.9h-30.7v-221.3h33.3v25.1ZM-675.9,1723.1c-3.7,15.6-2.9,31.6-.4,47.4,3.9,9.3,9,17.7,18.8,20.7,20.5,6.1,56.2,6.1,62.5-20.6,5.3-22.1,7.2-63.6-23.5-70.1-19.8-4.2-51.5-2.9-57.5,22.7Z"/>
    <path class="st3" d="M-1183.6,1827.2v-92.8c0-27.3-23.9-34.4-41.7-34.4s-41.4,7.5-41.7,32.4v94.9h-33.3v-221.3h33.3v73.3c11.6-9.2,29.8-13.6,47.5-13.6,13.5,0,26.8,2.6,36.7,6.7,18.7,7.9,32.4,25.6,32.4,46.9v107.9s-33.3,0-33.3,0Z"/>
    <polygon class="st3" points="-1894.4 1700.4 -1894.4 1827.2 -1927.7 1827.2 -1927.7 1666.6 -1824.7 1666.6 -1824.7 1700.4 -1894.4 1700.4"/>
    <path class="st3" d="M-1735.9,1665.6h-22c-35.9,0-65,29.1-65,65v32.5c0,35.9,29.1,65,65,65h22c35.9,0,65-29.1,65-65v-32.5c0-35.9-29.1-65-65-65ZM-1703.3,1756.2c0,20.6-16.7,37.3-37.3,37.3h-12.7c-20.6,0-37.3-16.7-37.3-37.3v-18.6c0-20.6,16.7-37.3,37.3-37.3h12.7c20.6,0,37.3,16.7,37.3,37.3v18.6Z"/>
    <polygon class="st3" points="-1468.3 1666.6 -1495.6 1789.7 -1517.6 1666.6 -1548.4 1666.6 -1579.2 1666.6 -1601.2 1789.7 -1628.5 1666.6 -1664.7 1666.6 -1629.2 1827.2 -1570.7 1827.2 -1548.4 1701.5 -1526.1 1827.2 -1467.6 1827.2 -1432.1 1666.6 -1468.3 1666.6"/>
    <path class="st3" d="M-1321.9,1793.4v33.8h-32.3c-23.3,0-42.1-18.8-42.1-42.1v-84.8h-23.1v-33.8h23.1v-43.8h33.3v43.8h41.1v33.8h-41.1v72.6c0,11.3,9.2,20.5,20.5,20.5h20.6Z"/>
    <path class="st3" d="M-948.4,1827.2v-92.8c0-27.3-23.9-34.4-41.7-34.4s-41.4,7.5-41.7,32.4v94.9h-33.3v-221.3h33.3v73.3c11.6-9.2,29.8-13.6,47.5-13.6,13.5,0,26.8,2.6,36.7,6.7,18.7,7.9,32.4,25.6,32.4,46.9v107.9s-33.3,0-33.3,0Z"/>
    <path class="st3" d="M-856.1,1666.6v92.8c0,27.3,23.9,34.4,41.7,34.4s41.4-7.5,41.7-32.4v-94.9h33.3v160.6h-29.1l-4.2-12.6c-11.6,9.2-29.8,13.6-47.5,13.6-13.5,0-26.8-2.6-36.7-6.7-18.7-7.9-32.4-25.6-32.4-46.9v-107.9s33.3,0,33.3,0Z"/>
    <path class="st3" d="M-1987.4,1666.6l-4.2,11.9c-23.2-15.7-57.4-15.7-81.5-7.1-19.3,6.9-31.3,22.7-35.1,43-5.6,29.5-7.1,84.4,23.6,102.2,29.6,17.2,65.4,14.9,94.6-2.3v48.8h-107.8v33.8h141v-230.2h-30.7ZM-1992.7,1770.7c-6,25.6-37.7,26.9-57.5,22.7-30.7-6.4-28.7-47.9-23.5-70.1,6.3-26.8,42.1-26.8,62.5-20.6,9.8,2.9,15,11.4,18.8,20.7,2.5,15.7,3.3,31.7-.4,47.4Z"/>
    <g>
      <g>
        <path class="st4" d="M-2282.4,1657c0,5.2-4.2,9.4-9.4,9.4h-121.8c-2.5,0-4.9,1-6.6,2.7l-12,12c-1.8,1.8-2.7,4.1-2.7,6.6v116.4c0,2.5,1,4.9,2.7,6.6l14.4,14.4c1.8,1.8,4.1,2.7,6.6,2.7h119.5c5.2,0,9.4,4.2,9.4,9.4v24c0,5.2-4.2,9.4-9.4,9.4h-133.9c-5.2,0-9.4-4.2-9.4-9.4v-13.8c0-2.5-1-4.9-2.7-6.6l-10.2-10.2c-1.8-1.8-4.1-2.7-6.6-2.7h-13.3c-5.2,0-9.4-4.2-9.4-9.4v-142.8c0-5.2,4.2-9.4,9.4-9.4h10.9c2.5,0,4.9-1,6.6-2.7l12.6-12.6c1.8-1.8,2.7-4.1,2.7-6.6v-11.9c0-5.2,4.2-9.4,9.4-9.4h133.9c5.2,0,9.4,4.2,9.4,9.4v24.5Z"/>
        <rect class="st4" x="-2386.5" y="1725" width="104.1" height="43.8" rx="-1089.1" ry="-1089.1" transform="translate(-1919 -1139.1) rotate(-45)"/>
      </g>
      <rect class="st4" x="-2241.1" y="1666.5" width="43.3" height="161.5" rx="-1077.3" ry="-1077.3"/>
    </g>
  </g>
  <g>
    <g>
      <path class="st3" d="M-1922.6-781.1c0,7.6-6.2,13.8-13.8,13.8h-179.1c-3.7,0-7.2,1.5-9.8,4l-17.7,17.7c-2.6,2.6-4,6.1-4,9.8v171.1c0,3.7,1.5,7.2,4,9.8l21.1,21.1c2.6,2.6,6.1,4,9.8,4h175.6c7.6,0,13.8,6.2,13.8,13.8v35.2c0,7.6-6.2,13.8-13.8,13.8h-196.7c-7.6,0-13.8-6.2-13.8-13.8v-20.3c0-3.7-1.5-7.2-4-9.8l-15-15c-2.6-2.6-6.1-4-9.8-4h-19.5c-7.6,0-13.8-6.2-13.8-13.8v-209.9c0-7.6,6.2-13.8,13.8-13.8h16c3.7,0,7.2-1.5,9.8-4l18.5-18.5c2.6-2.6,4-6.1,4-9.8v-17.6c0-7.6,6.2-13.8,13.8-13.8h196.7c7.6,0,13.8,6.2,13.8,13.8v36Z"/>
      <rect class="st3" x="-2075.6" y="-681.1" width="153.1" height="64.4" rx="-884.8" ry="-884.8" transform="translate(-126.7 -1603.6) rotate(-45)"/>
    </g>
    <rect class="st3" x="-1861.9" y="-767.1" width="63.6" height="237.4" rx="-867.3" ry="-867.3"/>
  </g>
  <rect class="st3" x="-266.1" y="-2331.4" width="1085" height="1085"/>
  <rect class="st4" x="-3686.1" y="-1191.4" width="1085" height="1085"/>
  <g>
    <g>
      <path class="st2" d="M-3062.6-781.1c0,7.6-6.2,13.8-13.8,13.8h-179.1c-3.7,0-7.2,1.5-9.8,4l-17.7,17.7c-2.6,2.6-4,6.1-4,9.8v171.1c0,3.7,1.5,7.2,4,9.8l21.1,21.1c2.6,2.6,6.1,4,9.8,4h175.6c7.6,0,13.8,6.2,13.8,13.8v35.2c0,7.6-6.2,13.8-13.8,13.8h-196.7c-7.6,0-13.8-6.2-13.8-13.8v-20.3c0-3.7-1.5-7.2-4-9.8l-15-15c-2.6-2.6-6.1-4-9.8-4h-19.5c-7.6,0-13.8-6.2-13.8-13.8v-209.9c0-7.6,6.2-13.8,13.8-13.8h16c3.7,0,7.2-1.5,9.8-4l18.5-18.5c2.6-2.6,4-6.1,4-9.8v-17.6c0-7.6,6.2-13.8,13.8-13.8h196.7c7.6,0,13.8,6.2,13.8,13.8v36Z"/>
      <rect class="st2" x="-3215.6" y="-681.1" width="153.1" height="64.4" rx="-1454.8" ry="-1454.8" transform="translate(-460.6 -2409.7) rotate(-45)"/>
    </g>
    <rect class="st2" x="-3001.9" y="-767.1" width="63.6" height="237.4" rx="-1437.3" ry="-1437.3"/>
  </g>
  <rect class="st3" x="-4826.1" y="-1191.4" width="1085" height="1085"/>
  <g>
    <g>
      <path class="st4" d="M-4202.6-781.1c0,7.6-6.2,13.8-13.8,13.8h-179.1c-3.7,0-7.2,1.5-9.8,4l-17.7,17.7c-2.6,2.6-4,6.1-4,9.8v171.1c0,3.7,1.5,7.2,4,9.8l21.1,21.1c2.6,2.6,6.1,4,9.8,4h175.6c7.6,0,13.8,6.2,13.8,13.8v35.2c0,7.6-6.2,13.8-13.8,13.8h-196.7c-7.6,0-13.8-6.2-13.8-13.8v-20.3c0-3.7-1.5-7.2-4-9.8l-15-15c-2.6-2.6-6.1-4-9.8-4h-19.5c-7.6,0-13.8-6.2-13.8-13.8v-209.9c0-7.6,6.2-13.8,13.8-13.8h16c3.7,0,7.2-1.5,9.8-4l18.5-18.5c2.6-2.6,4-6.1,4-9.8v-17.6c0-7.6,6.2-13.8,13.8-13.8h196.7c7.6,0,13.8,6.2,13.8,13.8v36Z"/>
      <rect class="st4" x="-4355.6" y="-681.1" width="153.1" height="64.4" rx="-2024.8" ry="-2024.8" transform="translate(-794.5 -3215.8) rotate(-45)"/>
    </g>
    <rect class="st4" x="-4141.9" y="-767.1" width="63.6" height="237.4" rx="-2007.3" ry="-2007.3"/>
  </g>
  <g>
    <g>
      <path class="st2" d="M357.4-1921.1c0,7.6-6.2,13.8-13.8,13.8h-179.1c-3.7,0-7.2,1.5-9.8,4l-17.7,17.7c-2.6,2.6-4,6.1-4,9.8v171.1c0,3.7,1.5,7.2,4,9.8l21.1,21.1c2.6,2.6,6.1,4,9.8,4h175.6c7.6,0,13.8,6.2,13.8,13.8v35.2c0,7.6-6.2,13.8-13.8,13.8h-196.7c-7.6,0-13.8-6.2-13.8-13.8v-20.3c0-3.7-1.5-7.2-4-9.8l-15-15c-2.6-2.6-6.1-4-9.8-4h-19.5c-7.6,0-13.8-6.2-13.8-13.8v-209.9c0-7.6,6.2-13.8,13.8-13.8h16c3.7,0,7.2-1.5,9.8-4l18.5-18.5c2.6-2.6,4-6.1,4-9.8v-17.6c0-7.6,6.2-13.8,13.8-13.8h196.7c7.6,0,13.8,6.2,13.8,13.8v36Z"/>
      <rect class="st2" x="204.4" y="-1821.1" width="153.1" height="64.4" rx="-846.2" ry="-846.2" transform="translate(1347.2 -325.3) rotate(-45)"/>
    </g>
    <rect class="st2" x="418.1" y="-1907.1" width="63.6" height="237.4" rx="-716.2" ry="-716.2"/>
  </g>
  <g>
    <g>
      <path class="st2" d="M502.1,87.3c0,13.4-10.8,24.2-24.2,24.2H163.9c-6.4,0-12.6,2.5-17.1,7.1l-31,31c-4.5,4.5-7.1,10.7-7.1,17.1v300.1c0,6.4,2.5,12.6,7.1,17.1l37,37c4.5,4.5,10.7,7.1,17.1,7.1h307.9c13.4,0,24.2,10.8,24.2,24.2v61.8c0,13.4-10.8,24.2-24.2,24.2H133c-13.4,0-24.2-10.8-24.2-24.2v-35.5c0-6.4-2.5-12.6-7.1-17.1l-26.3-26.3c-4.5-4.5-10.7-7.1-17.1-7.1H24.2c-13.4,0-24.2-10.8-24.2-24.2V135.7c0-13.4,10.8-24.2,24.2-24.2h28.1c6.4,0,12.6-2.5,17.1-7.1l32.4-32.4c4.5-4.5,7.1-10.7,7.1-17.1v-30.8c0-13.4,10.8-24.2,24.2-24.2h344.9c13.4,0,24.2,10.8,24.2,24.2v63.1Z"/>
      <rect class="st2" x="233.8" y="262.6" width="268.3" height="112.8" rx="24.2" ry="24.2" transform="translate(-117.8 353.6) rotate(-45)"/>
    </g>
    <rect class="st2" x="608.5" y="111.8" width="111.5" height="416.2" rx="24.2" ry="24.2"/>
  </g>
  <g>
    <g>
      <path class="st4" d="M502.1,818.4c0,13.4-10.8,24.2-24.2,24.2H163.9c-6.4,0-12.6,2.5-17.1,7.1l-31,31c-4.5,4.5-7.1,10.7-7.1,17.1v300.1c0,6.4,2.5,12.6,7.1,17.1l37,37c4.5,4.5,10.7,7.1,17.1,7.1h307.9c13.4,0,24.2,10.8,24.2,24.2v61.8c0,13.4-10.8,24.2-24.2,24.2H133c-13.4,0-24.2-10.8-24.2-24.2v-35.5c0-6.4-2.5-12.6-7.1-17.1l-26.3-26.3c-4.5-4.5-10.7-7.1-17.1-7.1H24.2c-13.4,0-24.2-10.8-24.2-24.2v-368.1c0-13.4,10.8-24.2,24.2-24.2h28.1c6.4,0,12.6-2.5,17.1-7.1l32.4-32.4c4.5-4.5,7.1-10.7,7.1-17.1v-30.8c0-13.4,10.8-24.2,24.2-24.2h344.9c13.4,0,24.2,10.8,24.2,24.2v63.1Z"/>
      <rect class="st4" x="233.8" y="993.7" width="268.3" height="112.8" rx="24.2" ry="24.2" transform="translate(-634.8 567.7) rotate(-45)"/>
    </g>
    <rect class="st4" x="608.5" y="842.9" width="111.5" height="416.2" rx="24.2" ry="24.2"/>
  </g>
  <g>
    <g>
      <path class="st3" d="M502.1,1549.5c0,13.4-10.8,24.2-24.2,24.2H163.9c-6.4,0-12.6,2.5-17.1,7.1l-31,31c-4.5,4.5-7.1,10.7-7.1,17.1v300.1c0,6.4,2.5,12.6,7.1,17.1l37,37c4.5,4.5,10.7,7.1,17.1,7.1h307.9c13.4,0,24.2,10.8,24.2,24.2v61.8c0,13.4-10.8,24.2-24.2,24.2H133c-13.4,0-24.2-10.8-24.2-24.2v-35.5c0-6.4-2.5-12.6-7.1-17.1l-26.3-26.3c-4.5-4.5-10.7-7.1-17.1-7.1H24.2c-13.4,0-24.2-10.8-24.2-24.2v-368.1c0-13.4,10.8-24.2,24.2-24.2h28.1c6.4,0,12.6-2.5,17.1-7.1l32.4-32.4c4.5-4.5,7.1-10.7,7.1-17.1v-30.8c0-13.4,10.8-24.2,24.2-24.2h344.9c13.4,0,24.2,10.8,24.2,24.2v63.1Z"/>
      <rect class="st3" x="233.8" y="1724.8" width="268.3" height="112.8" rx="24.2" ry="24.2" transform="translate(-1151.8 781.9) rotate(-45)"/>
    </g>
    <rect class="st3" x="608.5" y="1574" width="111.5" height="416.2" rx="24.2" ry="24.2"/>
  </g>
  <path class="st4" d="M-678.6,53.3v48.5c29.1-17.3,65-19.5,94.6-2.3,30.7,17.8,29.2,72.8,23.6,102.2-3.9,20.3-15.9,36-35.1,43-24.1,8.6-58.3,8.6-81.5-7.1l-4.2,11.9h-30.7V28.2h33.3v25.1ZM-675.9,145.3c-3.7,15.6-2.9,31.6-.4,47.4,3.9,9.3,9,17.7,18.8,20.7,20.5,6.1,56.2,6.1,62.5-20.6,5.3-22.1,7.2-63.6-23.5-70.1-19.8-4.2-51.5-2.9-57.5,22.7Z"/>
  <path class="st4" d="M-1183.6,249.4v-92.8c0-27.3-23.9-34.4-41.7-34.4s-41.4,7.5-41.7,32.4v94.9h-33.3V28.2h33.3v73.3c11.6-9.2,29.8-13.6,47.5-13.6,13.5,0,26.8,2.6,36.7,6.7,18.7,7.9,32.4,25.6,32.4,46.9v107.9s-33.3,0-33.3,0Z"/>
  <polygon class="st4" points="-1894.4 122.6 -1894.4 249.4 -1927.7 249.4 -1927.7 88.8 -1824.7 88.8 -1824.7 122.6 -1894.4 122.6"/>
  <path class="st4" d="M-1735.9,87.8h-22c-35.9,0-65,29.1-65,65v32.5c0,35.9,29.1,65,65,65h22c35.9,0,65-29.1,65-65v-32.5c0-35.9-29.1-65-65-65ZM-1703.3,178.4c0,20.6-16.7,37.3-37.3,37.3h-12.7c-20.6,0-37.3-16.7-37.3-37.3v-18.6c0-20.6,16.7-37.3,37.3-37.3h12.7c20.6,0,37.3,16.7,37.3,37.3v18.6Z"/>
  <polygon class="st4" points="-1468.3 88.8 -1495.6 211.9 -1517.6 88.8 -1548.4 88.8 -1579.2 88.8 -1601.2 211.9 -1628.5 88.8 -1664.7 88.8 -1629.2 249.4 -1570.7 249.4 -1548.4 123.7 -1526.1 249.4 -1467.6 249.4 -1432.1 88.8 -1468.3 88.8"/>
  <path class="st4" d="M-1321.9,215.6v33.8h-32.3c-23.3,0-42.1-18.8-42.1-42.1v-84.8h-23.1v-33.8h23.1v-43.8h33.3v43.8h41.1v33.8h-41.1v72.6c0,11.3,9.2,20.5,20.5,20.5h20.6Z"/>
  <path class="st4" d="M-948.4,249.4v-92.8c0-27.3-23.9-34.4-41.7-34.4s-41.4,7.5-41.7,32.4v94.9h-33.3V28.2h33.3v73.3c11.6-9.2,29.8-13.6,47.5-13.6,13.5,0,26.8,2.6,36.7,6.7,18.7,7.9,32.4,25.6,32.4,46.9v107.9s-33.3,0-33.3,0Z"/>
  <path class="st4" d="M-856.1,88.8v92.8c0,27.3,23.9,34.4,41.7,34.4s41.4-7.5,41.7-32.4v-94.9h33.3v160.6h-29.1l-4.2-12.6c-11.6,9.2-29.8,13.6-47.5,13.6-13.5,0-26.8-2.6-36.7-6.7-18.7-7.9-32.4-25.6-32.4-46.9v-107.9s33.3,0,33.3,0Z"/>
  <path class="st4" d="M-1987.4,88.8l-4.2,11.9c-23.2-15.7-57.4-15.7-81.5-7.1-19.3,6.9-31.3,22.7-35.1,43-5.6,29.5-7.1,84.4,23.6,102.2,29.6,17.2,65.4,14.9,94.6-2.3v48.8h-107.8v33.8h141V88.8h-30.7ZM-1992.7,192.9c-6,25.6-37.7,26.9-57.5,22.7-30.7-6.4-28.7-47.9-23.5-70.1,6.3-26.8,42.1-26.8,62.5-20.6,9.8,2.9,15,11.4,18.8,20.7,2.5,15.7,3.3,31.7-.4,47.4Z"/>
  <path class="st4" d="M-678.6,368.8v48.5c29.1-17.3,65-19.5,94.6-2.3,30.7,17.8,29.2,72.8,23.6,102.2-3.9,20.3-15.9,36-35.1,43-24.1,8.6-58.3,8.6-81.5-7.1l-4.2,11.9h-30.7v-221.3h33.3v25.1ZM-675.9,460.8c-3.7,15.6-2.9,31.6-.4,47.4,3.9,9.3,9,17.7,18.8,20.7,20.5,6.1,56.2,6.1,62.5-20.6,5.3-22.1,7.2-63.6-23.5-70.1-19.8-4.2-51.5-2.9-57.5,22.7Z"/>
  <path class="st4" d="M-1183.6,565v-92.8c0-27.3-23.9-34.4-41.7-34.4s-41.4,7.5-41.7,32.4v94.9h-33.3v-221.3h33.3v73.3c11.6-9.2,29.8-13.6,47.5-13.6,13.5,0,26.8,2.6,36.7,6.7,18.7,7.9,32.4,25.6,32.4,46.9v107.9s-33.3,0-33.3,0Z"/>
  <polygon class="st4" points="-1894.4 438.1 -1894.4 565 -1927.7 565 -1927.7 404.3 -1824.7 404.3 -1824.7 438.1 -1894.4 438.1"/>
  <path class="st4" d="M-1735.9,403.4h-22c-35.9,0-65,29.1-65,65v32.5c0,35.9,29.1,65,65,65h22c35.9,0,65-29.1,65-65v-32.5c0-35.9-29.1-65-65-65ZM-1703.3,493.9c0,20.6-16.7,37.3-37.3,37.3h-12.7c-20.6,0-37.3-16.7-37.3-37.3v-18.6c0-20.6,16.7-37.3,37.3-37.3h12.7c20.6,0,37.3,16.7,37.3,37.3v18.6Z"/>
  <polygon class="st4" points="-1468.3 404.3 -1495.6 527.5 -1517.6 404.3 -1548.4 404.3 -1579.2 404.3 -1601.2 527.5 -1628.5 404.3 -1664.7 404.3 -1629.2 565 -1570.7 565 -1548.4 439.3 -1526.1 565 -1467.6 565 -1432.1 404.3 -1468.3 404.3"/>
  <path class="st4" d="M-1321.9,531.2v33.8h-32.3c-23.3,0-42.1-18.8-42.1-42.1v-84.8h-23.1v-33.8h23.1v-43.8h33.3v43.8h41.1v33.8h-41.1v72.6c0,11.3,9.2,20.5,20.5,20.5h20.6Z"/>
  <path class="st4" d="M-948.4,565v-92.8c0-27.3-23.9-34.4-41.7-34.4s-41.4,7.5-41.7,32.4v94.9h-33.3v-221.3h33.3v73.3c11.6-9.2,29.8-13.6,47.5-13.6,13.5,0,26.8,2.6,36.7,6.7,18.7,7.9,32.4,25.6,32.4,46.9v107.9s-33.3,0-33.3,0Z"/>
  <path class="st4" d="M-856.1,404.4v92.8c0,27.3,23.9,34.4,41.7,34.4s41.4-7.5,41.7-32.4v-94.9h33.3v160.6h-29.1l-4.2-12.6c-11.6,9.2-29.8,13.6-47.5,13.6-13.5,0-26.8-2.6-36.7-6.7-18.7-7.9-32.4-25.6-32.4-46.9v-107.9s33.3,0,33.3,0Z"/>
  <path class="st4" d="M-1987.4,404.4l-4.2,11.9c-23.2-15.7-57.4-15.7-81.5-7.1-19.3,6.9-31.3,22.7-35.1,43-5.6,29.5-7.1,84.4,23.6,102.2,29.6,17.2,65.4,14.9,94.6-2.3v48.8h-107.8v33.8h141v-230.2h-30.7ZM-1992.7,508.5c-6,25.6-37.7,26.9-57.5,22.7-30.7-6.4-28.7-47.9-23.5-70.1,6.3-26.8,42.1-26.8,62.5-20.6,9.8,2.9,15,11.4,18.8,20.7,2.5,15.7,3.3,31.7-.4,47.4Z"/>
  <path class="st4" d="M-678.6,684.4v48.5c29.1-17.3,65-19.5,94.6-2.3,30.7,17.8,29.2,72.8,23.6,102.2-3.9,20.3-15.9,36-35.1,43-24.1,8.6-58.3,8.6-81.5-7.1l-4.2,11.9h-30.7v-221.3h33.3v25.1ZM-675.9,776.4c-3.7,15.6-2.9,31.6-.4,47.4,3.9,9.3,9,17.7,18.8,20.7,20.5,6.1,56.2,6.1,62.5-20.6,5.3-22.1,7.2-63.6-23.5-70.1-19.8-4.2-51.5-2.9-57.5,22.7Z"/>
  <path class="st4" d="M-1183.6,880.6v-92.8c0-27.3-23.9-34.4-41.7-34.4s-41.4,7.5-41.7,32.4v94.9h-33.3v-221.3h33.3v73.3c11.6-9.2,29.8-13.6,47.5-13.6,13.5,0,26.8,2.6,36.7,6.7,18.7,7.9,32.4,25.6,32.4,46.9v107.9s-33.3,0-33.3,0Z"/>
  <polygon class="st4" points="-1894.4 753.7 -1894.4 880.6 -1927.7 880.6 -1927.7 719.9 -1824.7 719.9 -1824.7 753.7 -1894.4 753.7"/>
  <path class="st4" d="M-1735.9,719h-22c-35.9,0-65,29.1-65,65v32.5c0,35.9,29.1,65,65,65h22c35.9,0,65-29.1,65-65v-32.5c0-35.9-29.1-65-65-65ZM-1703.3,809.5c0,20.6-16.7,37.3-37.3,37.3h-12.7c-20.6,0-37.3-16.7-37.3-37.3v-18.6c0-20.6,16.7-37.3,37.3-37.3h12.7c20.6,0,37.3,16.7,37.3,37.3v18.6Z"/>
  <polygon class="st4" points="-1468.3 719.9 -1495.6 843.1 -1517.6 719.9 -1548.4 719.9 -1579.2 719.9 -1601.2 843.1 -1628.5 719.9 -1664.7 719.9 -1629.2 880.6 -1570.7 880.6 -1548.4 754.9 -1526.1 880.6 -1467.6 880.6 -1432.1 719.9 -1468.3 719.9"/>
  <path class="st4" d="M-1321.9,846.7v33.8h-32.3c-23.3,0-42.1-18.8-42.1-42.1v-84.8h-23.1v-33.8h23.1v-43.8h33.3v43.8h41.1v33.8h-41.1v72.6c0,11.3,9.2,20.5,20.5,20.5h20.6Z"/>
  <path class="st4" d="M-948.4,880.6v-92.8c0-27.3-23.9-34.4-41.7-34.4s-41.4,7.5-41.7,32.4v94.9h-33.3v-221.3h33.3v73.3c11.6-9.2,29.8-13.6,47.5-13.6,13.5,0,26.8,2.6,36.7,6.7,18.7,7.9,32.4,25.6,32.4,46.9v107.9s-33.3,0-33.3,0Z"/>
  <path class="st4" d="M-856.1,720v92.8c0,27.3,23.9,34.4,41.7,34.4s41.4-7.5,41.7-32.4v-94.9h33.3v160.6h-29.1l-4.2-12.6c-11.6,9.2-29.8,13.6-47.5,13.6-13.5,0-26.8-2.6-36.7-6.7-18.7-7.9-32.4-25.6-32.4-46.9v-107.9s33.3,0,33.3,0Z"/>
  <path class="st4" d="M-1987.4,719.9l-4.2,11.9c-23.2-15.7-57.4-15.7-81.5-7.1-19.3,6.9-31.3,22.7-35.1,43-5.6,29.5-7.1,84.4,23.6,102.2,29.6,17.2,65.4,14.9,94.6-2.3v48.8h-107.8v33.8h141v-230.2h-30.7ZM-1992.7,824.1c-6,25.6-37.7,26.9-57.5,22.7-30.7-6.4-28.7-47.9-23.5-70.1,6.3-26.8,42.1-26.8,62.5-20.6,9.8,2.9,15,11.4,18.8,20.7,2.5,15.7,3.3,31.7-.4,47.4Z"/>
  <path class="st4" d="M-678.6,1000v48.5c29.1-17.3,65-19.5,94.6-2.3,30.7,17.8,29.2,72.8,23.6,102.2-3.9,20.3-15.9,36-35.1,43-24.1,8.6-58.3,8.6-81.5-7.1l-4.2,11.9h-30.7v-221.3h33.3v25.1ZM-675.9,1092c-3.7,15.6-2.9,31.6-.4,47.4,3.9,9.3,9,17.7,18.8,20.7,20.5,6.1,56.2,6.1,62.5-20.6,5.3-22.1,7.2-63.6-23.5-70.1-19.8-4.2-51.5-2.9-57.5,22.7Z"/>
  <path class="st4" d="M-1183.6,1196.1v-92.8c0-27.3-23.9-34.4-41.7-34.4s-41.4,7.5-41.7,32.4v94.9h-33.3v-221.3h33.3v73.3c11.6-9.2,29.8-13.6,47.5-13.6,13.5,0,26.8,2.6,36.7,6.7,18.7,7.9,32.4,25.6,32.4,46.9v107.9s-33.3,0-33.3,0Z"/>
  <polygon class="st4" points="-1894.4 1069.2 -1894.4 1196.1 -1927.7 1196.1 -1927.7 1035.4 -1824.7 1035.4 -1824.7 1069.2 -1894.4 1069.2"/>
  <path class="st4" d="M-1735.9,1034.5h-22c-35.9,0-65,29.1-65,65v32.5c0,35.9,29.1,65,65,65h22c35.9,0,65-29.1,65-65v-32.5c0-35.9-29.1-65-65-65ZM-1703.3,1125.1c0,20.6-16.7,37.3-37.3,37.3h-12.7c-20.6,0-37.3-16.7-37.3-37.3v-18.6c0-20.6,16.7-37.3,37.3-37.3h12.7c20.6,0,37.3,16.7,37.3,37.3v18.6Z"/>
  <polygon class="st4" points="-1468.3 1035.4 -1495.6 1158.6 -1517.6 1035.4 -1548.4 1035.4 -1579.2 1035.4 -1601.2 1158.6 -1628.5 1035.4 -1664.7 1035.4 -1629.2 1196.1 -1570.7 1196.1 -1548.4 1070.4 -1526.1 1196.1 -1467.6 1196.1 -1432.1 1035.4 -1468.3 1035.4"/>
  <path class="st4" d="M-1321.9,1162.3v33.8h-32.3c-23.3,0-42.1-18.8-42.1-42.1v-84.8h-23.1v-33.8h23.1v-43.8h33.3v43.8h41.1v33.8h-41.1v72.6c0,11.3,9.2,20.5,20.5,20.5h20.6Z"/>
  <path class="st4" d="M-948.4,1196.1v-92.8c0-27.3-23.9-34.4-41.7-34.4s-41.4,7.5-41.7,32.4v94.9h-33.3v-221.3h33.3v73.3c11.6-9.2,29.8-13.6,47.5-13.6,13.5,0,26.8,2.6,36.7,6.7,18.7,7.9,32.4,25.6,32.4,46.9v107.9s-33.3,0-33.3,0Z"/>
  <path class="st4" d="M-856.1,1035.5v92.8c0,27.3,23.9,34.4,41.7,34.4s41.4-7.5,41.7-32.4v-94.9h33.3v160.6h-29.1l-4.2-12.6c-11.6,9.2-29.8,13.6-47.5,13.6-13.5,0-26.8-2.6-36.7-6.7-18.7-7.9-32.4-25.6-32.4-46.9v-107.9s33.3,0,33.3,0Z"/>
  <path class="st4" d="M-1987.4,1035.5l-4.2,11.9c-23.2-15.7-57.4-15.7-81.5-7.1-19.3,6.9-31.3,22.7-35.1,43-5.6,29.5-7.1,84.4,23.6,102.2,29.6,17.2,65.4,14.9,94.6-2.3v48.8h-107.8v33.8h141v-230.2h-30.7ZM-1992.7,1139.6c-6,25.6-37.7,26.9-57.5,22.7-30.7-6.4-28.7-47.9-23.5-70.1,6.3-26.8,42.1-26.8,62.5-20.6,9.8,2.9,15,11.4,18.8,20.7,2.5,15.7,3.3,31.7-.4,47.4Z"/>
  <g>
    <path class="st3" d="M-678.6,2966.4v48.5c29.1-17.3,65-19.5,94.6-2.3,30.7,17.8,29.2,72.8,23.6,102.2-3.9,20.3-15.9,36-35.1,43-24.1,8.6-58.3,8.6-81.5-7.1l-4.2,11.9h-30.7v-221.3h33.3v25.1ZM-675.9,3058.4c-3.7,15.6-2.9,31.6-.4,47.4,3.9,9.3,9,17.7,18.8,20.7,20.5,6.1,56.2,6.1,62.5-20.6,5.3-22.1,7.2-63.6-23.5-70.1-19.8-4.2-51.5-2.9-57.5,22.7Z"/>
    <path class="st3" d="M-1183.6,3162.5v-92.8c0-27.3-23.9-34.4-41.7-34.4s-41.4,7.5-41.7,32.4v94.9h-33.3v-221.3h33.3v73.3c11.6-9.2,29.8-13.6,47.5-13.6,13.5,0,26.8,2.6,36.7,6.7,18.7,7.9,32.4,25.6,32.4,46.9v107.9s-33.3,0-33.3,0Z"/>
    <polygon class="st3" points="-1894.4 3035.7 -1894.4 3162.5 -1927.7 3162.5 -1927.7 3001.9 -1824.7 3001.9 -1824.7 3035.7 -1894.4 3035.7"/>
    <path class="st3" d="M-1735.9,3000.9h-22c-35.9,0-65,29.1-65,65v32.5c0,35.9,29.1,65,65,65h22c35.9,0,65-29.1,65-65v-32.5c0-35.9-29.1-65-65-65ZM-1703.3,3091.5c0,20.6-16.7,37.3-37.3,37.3h-12.7c-20.6,0-37.3-16.7-37.3-37.3v-18.6c0-20.6,16.7-37.3,37.3-37.3h12.7c20.6,0,37.3,16.7,37.3,37.3v18.6Z"/>
    <polygon class="st3" points="-1468.3 3001.9 -1495.6 3125.1 -1517.6 3001.9 -1548.4 3001.9 -1579.2 3001.9 -1601.2 3125.1 -1628.5 3001.9 -1664.7 3001.9 -1629.2 3162.5 -1570.7 3162.5 -1548.4 3036.9 -1526.1 3162.5 -1467.6 3162.5 -1432.1 3001.9 -1468.3 3001.9"/>
    <path class="st3" d="M-1321.9,3128.7v33.8h-32.3c-23.3,0-42.1-18.8-42.1-42.1v-84.8h-23.1v-33.8h23.1v-43.8h33.3v43.8h41.1v33.8h-41.1v72.6c0,11.3,9.2,20.5,20.5,20.5h20.6Z"/>
    <path class="st3" d="M-948.4,3162.5v-92.8c0-27.3-23.9-34.4-41.7-34.4s-41.4,7.5-41.7,32.4v94.9h-33.3v-221.3h33.3v73.3c11.6-9.2,29.8-13.6,47.5-13.6,13.5,0,26.8,2.6,36.7,6.7,18.7,7.9,32.4,25.6,32.4,46.9v107.9s-33.3,0-33.3,0Z"/>
    <path class="st3" d="M-856.1,3002v92.8c0,27.3,23.9,34.4,41.7,34.4s41.4-7.5,41.7-32.4v-94.9h33.3v160.6h-29.1l-4.2-12.6c-11.6,9.2-29.8,13.6-47.5,13.6-13.5,0-26.8-2.6-36.7-6.7-18.7-7.9-32.4-25.6-32.4-46.9v-107.9s33.3,0,33.3,0Z"/>
    <path class="st3" d="M-1987.4,3001.9l-4.2,11.9c-23.2-15.7-57.4-15.7-81.5-7.1-19.3,6.9-31.3,22.7-35.1,43-5.6,29.5-7.1,84.4,23.6,102.2,29.6,17.2,65.4,14.9,94.6-2.3v48.8h-107.8v33.8h141v-230.2h-30.7ZM-1992.7,3106.1c-6,25.6-37.7,26.9-57.5,22.7-30.7-6.4-28.7-47.9-23.5-70.1,6.3-26.8,42.1-26.8,62.5-20.6,9.8,2.9,15,11.4,18.8,20.7,2.5,15.7,3.3,31.7-.4,47.4Z"/>
  </g>
  <g>
    <path class="st2" d="M-678.6,2556.8v48.5c29.1-17.3,65-19.5,94.6-2.3,30.7,17.8,29.2,72.8,23.6,102.2-3.9,20.3-15.9,36-35.1,43-24.1,8.6-58.3,8.6-81.5-7.1l-4.2,11.9h-30.7v-221.3h33.3v25.1ZM-675.9,2648.8c-3.7,15.6-2.9,31.6-.4,47.4,3.9,9.3,9,17.7,18.8,20.7,20.5,6.1,56.2,6.1,62.5-20.6,5.3-22.1,7.2-63.6-23.5-70.1-19.8-4.2-51.5-2.9-57.5,22.7Z"/>
    <path class="st2" d="M-1183.6,2752.9v-92.8c0-27.3-23.9-34.4-41.7-34.4s-41.4,7.5-41.7,32.4v94.9h-33.3v-221.3h33.3v73.3c11.6-9.2,29.8-13.6,47.5-13.6,13.5,0,26.8,2.6,36.7,6.7,18.7,7.9,32.4,25.6,32.4,46.9v107.9s-33.3,0-33.3,0Z"/>
    <polygon class="st2" points="-1894.4 2626.1 -1894.4 2752.9 -1927.7 2752.9 -1927.7 2592.3 -1824.7 2592.3 -1824.7 2626.1 -1894.4 2626.1"/>
    <path class="st2" d="M-1735.9,2591.3h-22c-35.9,0-65,29.1-65,65v32.5c0,35.9,29.1,65,65,65h22c35.9,0,65-29.1,65-65v-32.5c0-35.9-29.1-65-65-65ZM-1703.3,2681.9c0,20.6-16.7,37.3-37.3,37.3h-12.7c-20.6,0-37.3-16.7-37.3-37.3v-18.6c0-20.6,16.7-37.3,37.3-37.3h12.7c20.6,0,37.3,16.7,37.3,37.3v18.6Z"/>
    <polygon class="st2" points="-1468.3 2592.3 -1495.6 2715.4 -1517.6 2592.3 -1548.4 2592.3 -1579.2 2592.3 -1601.2 2715.4 -1628.5 2592.3 -1664.7 2592.3 -1629.2 2752.9 -1570.7 2752.9 -1548.4 2627.2 -1526.1 2752.9 -1467.6 2752.9 -1432.1 2592.3 -1468.3 2592.3"/>
    <path class="st2" d="M-1321.9,2719.1v33.8h-32.3c-23.3,0-42.1-18.8-42.1-42.1v-84.8h-23.1v-33.8h23.1v-43.8h33.3v43.8h41.1v33.8h-41.1v72.6c0,11.3,9.2,20.5,20.5,20.5h20.6Z"/>
    <path class="st2" d="M-948.4,2752.9v-92.8c0-27.3-23.9-34.4-41.7-34.4s-41.4,7.5-41.7,32.4v94.9h-33.3v-221.3h33.3v73.3c11.6-9.2,29.8-13.6,47.5-13.6,13.5,0,26.8,2.6,36.7,6.7,18.7,7.9,32.4,25.6,32.4,46.9v107.9s-33.3,0-33.3,0Z"/>
    <path class="st2" d="M-856.1,2592.4v92.8c0,27.3,23.9,34.4,41.7,34.4s41.4-7.5,41.7-32.4v-94.9h33.3v160.6h-29.1l-4.2-12.6c-11.6,9.2-29.8,13.6-47.5,13.6-13.5,0-26.8-2.6-36.7-6.7-18.7-7.9-32.4-25.6-32.4-46.9v-107.9s33.3,0,33.3,0Z"/>
    <path class="st2" d="M-1987.4,2592.3l-4.2,11.9c-23.2-15.7-57.4-15.7-81.5-7.1-19.3,6.9-31.3,22.7-35.1,43-5.6,29.5-7.1,84.4,23.6,102.2,29.6,17.2,65.4,14.9,94.6-2.3v48.8h-107.8v33.8h141v-230.2h-30.7ZM-1992.7,2696.5c-6,25.6-37.7,26.9-57.5,22.7-30.7-6.4-28.7-47.9-23.5-70.1,6.3-26.8,42.1-26.8,62.5-20.6,9.8,2.9,15,11.4,18.8,20.7,2.5,15.7,3.3,31.7-.4,47.4Z"/>
  </g>
  <g>
    <path class="st4" d="M-678.6,2194.3v48.5c29.1-17.3,65-19.5,94.6-2.3,30.7,17.8,29.2,72.8,23.6,102.2-3.9,20.3-15.9,36-35.1,43-24.1,8.6-58.3,8.6-81.5-7.1l-4.2,11.9h-30.7v-221.3h33.3v25.1ZM-675.9,2286.3c-3.7,15.6-2.9,31.6-.4,47.4,3.9,9.3,9,17.7,18.8,20.7,20.5,6.1,56.2,6.1,62.5-20.6,5.3-22.1,7.2-63.6-23.5-70.1-19.8-4.2-51.5-2.9-57.5,22.7Z"/>
    <path class="st4" d="M-1183.6,2390.4v-92.8c0-27.3-23.9-34.4-41.7-34.4s-41.4,7.5-41.7,32.4v94.9h-33.3v-221.3h33.3v73.3c11.6-9.2,29.8-13.6,47.5-13.6,13.5,0,26.8,2.6,36.7,6.7,18.7,7.9,32.4,25.6,32.4,46.9v107.9s-33.3,0-33.3,0Z"/>
    <polygon class="st4" points="-1894.4 2263.5 -1894.4 2390.4 -1927.7 2390.4 -1927.7 2229.7 -1824.7 2229.7 -1824.7 2263.5 -1894.4 2263.5"/>
    <path class="st4" d="M-1735.9,2228.8h-22c-35.9,0-65,29.1-65,65v32.5c0,35.9,29.1,65,65,65h22c35.9,0,65-29.1,65-65v-32.5c0-35.9-29.1-65-65-65ZM-1703.3,2319.4c0,20.6-16.7,37.3-37.3,37.3h-12.7c-20.6,0-37.3-16.7-37.3-37.3v-18.6c0-20.6,16.7-37.3,37.3-37.3h12.7c20.6,0,37.3,16.7,37.3,37.3v18.6Z"/>
    <polygon class="st4" points="-1468.3 2229.7 -1495.6 2352.9 -1517.6 2229.7 -1548.4 2229.7 -1579.2 2229.7 -1601.2 2352.9 -1628.5 2229.7 -1664.7 2229.7 -1629.2 2390.4 -1570.7 2390.4 -1548.4 2264.7 -1526.1 2390.4 -1467.6 2390.4 -1432.1 2229.7 -1468.3 2229.7"/>
    <path class="st4" d="M-1321.9,2356.6v33.8h-32.3c-23.3,0-42.1-18.8-42.1-42.1v-84.8h-23.1v-33.8h23.1v-43.8h33.3v43.8h41.1v33.8h-41.1v72.6c0,11.3,9.2,20.5,20.5,20.5h20.6Z"/>
    <path class="st4" d="M-948.4,2390.4v-92.8c0-27.3-23.9-34.4-41.7-34.4s-41.4,7.5-41.7,32.4v94.9h-33.3v-221.3h33.3v73.3c11.6-9.2,29.8-13.6,47.5-13.6,13.5,0,26.8,2.6,36.7,6.7,18.7,7.9,32.4,25.6,32.4,46.9v107.9s-33.3,0-33.3,0Z"/>
    <path class="st4" d="M-856.1,2229.8v92.8c0,27.3,23.9,34.4,41.7,34.4s41.4-7.5,41.7-32.4v-94.9h33.3v160.6h-29.1l-4.2-12.6c-11.6,9.2-29.8,13.6-47.5,13.6-13.5,0-26.8-2.6-36.7-6.7-18.7-7.9-32.4-25.6-32.4-46.9v-107.9s33.3,0,33.3,0Z"/>
    <path class="st4" d="M-1987.4,2229.8l-4.2,11.9c-23.2-15.7-57.4-15.7-81.5-7.1-19.3,6.9-31.3,22.7-35.1,43-5.6,29.5-7.1,84.4,23.6,102.2,29.6,17.2,65.4,14.9,94.6-2.3v48.8h-107.8v33.8h141v-230.2h-30.7ZM-1992.7,2333.9c-6,25.6-37.7,26.9-57.5,22.7-30.7-6.4-28.7-47.9-23.5-70.1,6.3-26.8,42.1-26.8,62.5-20.6,9.8,2.9,15,11.4,18.8,20.7,2.5,15.7,3.3,31.7-.4,47.4Z"/>
  </g>
</svg>